<svg width="112" height="119" viewBox="0 0 112 119" fill="none" xmlns="http://www.w3.org/2000/svg">
<path d="M57.0072 0.0143856C57.0935 0.0143856 57.1654 0.0143856 57.2516 0.0143856C57.3379 0.0143856 57.4242 0.0143856 57.5105 0.0143856C57.5968 0.0143856 57.683 0.0143856 57.7693 0.0143856C57.8556 0.0143856 57.9419 0.0143856 58.0282 0.0287712C58.1144 0.0287712 58.2007 0.0287712 58.3014 0.0431568C58.3877 0.0431568 58.4883 0.0575425 58.5746 0.0575425C58.6609 0.0575425 58.7615 0.0719281 58.8478 0.0719281C58.9341 0.0719281 59.0347 0.0863137 59.1354 0.0863137C59.2361 0.0863137 59.3223 0.100699 59.4086 0.100699C59.4949 0.100699 59.5956 0.115085 59.6818 0.115085C59.7681 0.115085 59.8688 0.129471 59.9551 0.129471C60.0413 0.129471 60.1276 0.143856 60.2283 0.158242C60.3146 0.172627 60.4008 0.172627 60.4871 0.187013C60.5734 0.201399 60.6597 0.201399 60.746 0.215784C60.8322 0.23017 60.9185 0.23017 61.0048 0.244555C61.0911 0.258941 61.1773 0.258941 61.2636 0.273327C61.3787 0.287712 61.4793 0.302098 61.58 0.330869C61.6806 0.35964 61.7813 0.388412 61.882 0.431568C61.9826 0.474725 62.0689 0.517882 62.1552 0.561039C62.2415 0.618581 62.3277 0.676124 62.414 0.733666C62.5003 0.791209 62.5722 0.863137 62.6441 0.935065C62.716 1.00699 62.7879 1.07892 62.8454 1.16523C62.9029 1.25155 62.9605 1.32348 63.018 1.40979C63.0755 1.4961 63.1186 1.58242 63.1474 1.68312C63.2049 1.81259 63.2768 1.94206 63.3343 2.07153C63.3918 2.18661 63.4494 2.33047 63.5213 2.45994C63.5788 2.58941 63.6507 2.73327 63.7082 2.86274C63.7657 3.00659 63.8376 3.13606 63.8951 3.27992C63.9527 3.42378 64.0246 3.56763 64.0821 3.6971C64.1396 3.84096 64.2115 3.98482 64.269 4.12867C64.3265 4.27253 64.3984 4.41638 64.456 4.56024C64.5135 4.7041 64.5854 4.84795 64.6429 4.99181C64.7867 5.32268 64.9305 5.63916 65.0599 5.97003C65.2037 6.28651 65.3331 6.603 65.4769 6.91948C65.6207 7.22158 65.7501 7.52368 65.8939 7.81139C66.0234 8.0991 66.1672 8.37243 66.2966 8.61698C66.426 8.87592 66.5554 9.10609 66.6848 9.32188C66.8143 9.53766 66.9437 9.72468 67.0587 9.8973C67.1738 10.0699 67.3032 10.1994 67.4182 10.3145C67.5332 10.4296 67.6483 10.5015 67.749 10.5447C67.864 10.5878 67.9934 10.6166 68.166 10.6166C68.3241 10.6166 68.5111 10.6022 68.7268 10.5734C68.9425 10.5447 69.1582 10.4871 69.417 10.4296C69.6615 10.372 69.9347 10.2857 70.2079 10.1994C70.4811 10.1131 70.7831 10.0124 71.0851 9.8973C71.3871 9.78222 71.7034 9.66713 72.0198 9.55205C72.3361 9.42258 72.6669 9.29311 72.9976 9.16364C73.3283 9.03417 73.6591 8.89031 74.0042 8.76084C74.148 8.7033 74.2918 8.64575 74.4356 8.58821C74.5794 8.53067 74.7232 8.47313 74.8526 8.41558C74.9964 8.35804 75.1402 8.3005 75.2696 8.24296C75.4134 8.18541 75.5428 8.12787 75.6866 8.08472C75.8304 8.02717 75.9599 7.98402 76.0893 7.92647C76.2187 7.86893 76.3625 7.82577 76.4919 7.78262C76.6213 7.73946 76.7507 7.68192 76.8802 7.63876C77.0096 7.5956 77.139 7.55245 77.254 7.50929C77.3547 7.46613 77.4697 7.43736 77.5848 7.42298C77.6998 7.40859 77.8005 7.39421 77.9155 7.37982C78.0306 7.37982 78.1312 7.37982 78.2319 7.39421C78.3325 7.40859 78.4476 7.42298 78.5482 7.45175C78.6489 7.48052 78.7495 7.50929 78.8502 7.55245C78.9509 7.5956 79.0515 7.63876 79.1378 7.68192C79.2241 7.73946 79.3247 7.797 79.411 7.85455C79.4973 7.91209 79.5836 7.98402 79.6555 8.05594C79.7849 8.15664 79.9143 8.25734 80.0294 8.37243C80.1588 8.47313 80.2738 8.57383 80.4032 8.68891C80.5327 8.78961 80.6477 8.89031 80.7627 9.00539C80.8778 9.10609 81.0072 9.22118 81.1222 9.32188C81.2373 9.42258 81.3523 9.53766 81.4673 9.63836C81.5824 9.73906 81.6974 9.85415 81.7981 9.95485C81.9131 10.0555 82.0138 10.1706 82.1288 10.2713C82.2439 10.372 82.3445 10.4871 82.4452 10.5878C82.5602 10.7029 82.6753 10.818 82.7759 10.9331C82.8909 11.0482 83.006 11.1632 83.1066 11.2783C83.2217 11.3934 83.3367 11.5229 83.4374 11.638C83.5524 11.753 83.6531 11.8825 83.7681 12.012C83.8832 12.1415 83.9838 12.2565 84.0989 12.386C84.2139 12.5155 84.3146 12.645 84.4296 12.7744C84.5446 12.9039 84.6453 13.0334 84.7603 13.1772C84.8754 13.3067 84.976 13.4506 85.0911 13.58C85.163 13.6663 85.2205 13.7526 85.278 13.839C85.3355 13.9253 85.3787 14.026 85.4218 14.1123C85.4649 14.213 85.4937 14.2993 85.5225 14.4C85.5512 14.5007 85.5656 14.6014 85.58 14.6877C85.5944 14.7884 85.6087 14.8891 85.6087 14.9898C85.6087 15.0905 85.6087 15.1912 85.5944 15.2919C85.58 15.3926 85.5656 15.4933 85.5368 15.5796C85.5081 15.6803 85.4793 15.7666 85.4506 15.8673C85.4074 15.9824 85.3643 16.1119 85.3211 16.2414C85.278 16.3708 85.2349 16.4859 85.1774 16.6154C85.1342 16.7449 85.0767 16.8743 85.0335 17.0038C84.9904 17.1333 84.9329 17.2627 84.8754 17.4066C84.8179 17.5361 84.7747 17.6799 84.7172 17.8094C84.6597 17.9389 84.6022 18.0827 84.559 18.2122C84.5015 18.3417 84.444 18.4855 84.4008 18.6294C84.3433 18.7732 84.2858 18.9027 84.2283 19.0466C84.0989 19.3774 83.9551 19.7227 83.8256 20.0535C83.6962 20.3844 83.5668 20.7153 83.4374 21.0318C83.308 21.3483 83.1929 21.6647 83.0923 21.9668C82.9772 22.2689 82.8766 22.571 82.7903 22.8444C82.704 23.1177 82.6177 23.391 82.5602 23.6356C82.5027 23.8801 82.4452 24.1103 82.4164 24.3261C82.3877 24.5419 82.3733 24.7289 82.3733 24.8871C82.3733 25.0454 82.402 25.1892 82.4452 25.3043C82.4883 25.405 82.5746 25.5201 82.6753 25.6352C82.7903 25.7502 82.9197 25.8653 83.0923 25.9948C83.2648 26.1099 83.4518 26.2394 83.6675 26.3688C83.8832 26.4983 84.1132 26.6278 84.3721 26.7572C84.6309 26.8867 84.8898 27.0162 85.1774 27.16C85.4649 27.2895 85.7525 27.4334 86.0689 27.5772C86.3709 27.7211 86.6872 27.8506 87.018 27.9944C87.3343 28.1383 87.6651 28.2821 87.9958 28.4116C88.154 28.4835 88.2978 28.5411 88.456 28.613C88.6141 28.6849 88.7579 28.7425 88.9161 28.8144C89.0599 28.8863 89.2181 28.9439 89.3619 29.0158C89.5057 29.0877 89.6639 29.1453 89.8077 29.2172C89.9515 29.2891 90.0953 29.3467 90.2391 29.4186C90.3829 29.4905 90.5267 29.5481 90.6705 29.62C90.8143 29.6919 90.9437 29.7495 91.0875 29.8214C91.2169 29.8933 91.3607 29.9508 91.4757 30.0228L91.3463 30.2817L91.2169 30.5407L91.0875 30.7996L90.9581 31.0585L90.8286 31.3175L90.6992 31.5764L90.5698 31.8354L90.4404 32.0943L90.5698 31.8354L90.6992 31.5764L90.8286 31.3175L90.9581 31.0585L91.0875 30.7996L91.2169 30.5407L91.3463 30.2817L91.4757 30.0228C91.5764 30.0659 91.6627 30.1235 91.7489 30.181C91.8352 30.2386 91.9071 30.2961 91.9934 30.368C92.0653 30.44 92.1372 30.5119 92.2091 30.5838C92.2666 30.6557 92.3385 30.7421 92.3817 30.8284C92.4392 30.9147 92.4823 31.001 92.5255 31.0873C92.5686 31.1736 92.6117 31.2599 92.6405 31.3606C92.6693 31.447 92.698 31.5477 92.7124 31.6484C92.7268 31.7491 92.7412 31.8354 92.7555 31.9361C92.7699 32.0224 92.7699 32.0943 92.7843 32.1806C92.7987 32.2669 92.7987 32.3389 92.8131 32.4252C92.8274 32.5115 92.8274 32.5834 92.8418 32.6697C92.8562 32.756 92.8562 32.8424 92.8706 32.9143C92.885 33.0006 92.885 33.0869 92.885 33.1732C92.885 33.2595 92.8993 33.3459 92.8993 33.4322C92.8993 33.5185 92.9137 33.6048 92.9137 33.6911C92.9137 33.7774 92.9281 33.8637 92.9281 33.9501C92.9281 34.0508 92.9425 34.1371 92.9425 34.2378C92.9425 34.3241 92.9568 34.4248 92.9568 34.5111C92.9568 34.5974 92.9712 34.6981 92.9712 34.7844C92.9712 34.8707 92.9712 34.957 92.9856 35.0577C92.9856 35.1441 92.9856 35.2304 93 35.3167C93 35.403 93 35.4893 93 35.5756C93 35.6619 93 35.7483 93 35.8346C93 35.9209 93 36.0072 93 36.0791C93 36.1511 93 36.2374 93 36.3237C93 36.41 93 36.4963 93 36.5826C93 36.6689 93 36.7552 93 36.8416C93 36.9279 93 37.0142 92.9856 37.1005C92.9856 37.1868 92.9856 37.2731 92.9712 37.3738C92.9712 37.4601 92.9568 37.5608 92.9568 37.6472C92.9568 37.7335 92.9425 37.8342 92.9425 37.9205C92.9425 38.0068 92.9281 38.1075 92.9281 38.2082C92.9281 38.3089 92.9137 38.3952 92.9137 38.4815C92.9137 38.5678 92.8993 38.6685 92.8993 38.7548C92.8993 38.8412 92.885 38.9419 92.885 39.0282C92.8706 39.1145 92.8706 39.2008 92.8562 39.3015C92.8418 39.3878 92.8418 39.4741 92.8274 39.5604C92.8131 39.6468 92.8131 39.7331 92.7987 39.8194C92.7843 39.9057 92.7843 39.992 92.7699 40.0783C92.7555 40.1646 92.7555 40.2509 92.7412 40.3373C92.7268 40.4524 92.7124 40.553 92.6836 40.6537C92.6549 40.7544 92.6261 40.8551 92.583 40.9558C92.5398 41.0565 92.4967 41.1429 92.4536 41.2292C92.396 41.3155 92.3529 41.4018 92.281 41.4881C92.2235 41.5744 92.1516 41.6464 92.0797 41.7183C92.0078 41.7902 91.9359 41.8621 91.8496 41.9197C91.7633 41.9772 91.6914 42.0348 91.6051 42.0923C91.5189 42.1498 91.4326 42.193 91.3319 42.2218C91.2025 42.2793 91.0731 42.3512 90.9437 42.4088C90.8143 42.4663 90.6848 42.5383 90.5554 42.5958C90.426 42.6533 90.2822 42.7253 90.1528 42.7828C90.009 42.8404 89.8796 42.9123 89.7358 42.9698C89.592 43.0274 89.4482 43.0993 89.3188 43.1568C89.175 43.2144 89.0312 43.2863 88.8874 43.3439C88.7436 43.4014 88.5998 43.4733 88.456 43.5309C88.3122 43.5884 88.1684 43.6603 88.0246 43.7179C87.6938 43.8617 87.3775 44.0056 87.0467 44.1351C86.7304 44.2789 86.414 44.4084 86.0977 44.5522C85.7957 44.6961 85.4937 44.8256 85.2061 44.9694C84.9185 45.1133 84.6453 45.2428 84.4008 45.3722C84.142 45.5017 83.9119 45.6312 83.6962 45.7606C83.4805 45.8901 83.2936 46.0196 83.121 46.1347C82.9485 46.2497 82.819 46.3792 82.704 46.4943C82.589 46.6094 82.5171 46.7245 82.4739 46.8252C82.4308 46.9403 82.402 47.0697 82.402 47.2424C82.402 47.4006 82.4164 47.5876 82.4452 47.8034C82.4739 48.0192 82.5315 48.235 82.589 48.4939C82.6465 48.7385 82.7328 49.0118 82.8191 49.2851C82.9053 49.5584 83.006 49.8605 83.121 50.1626C83.2361 50.4647 83.3511 50.7812 83.4661 51.0977C83.5812 51.4142 83.725 51.7451 83.8544 52.0759C83.9838 52.4068 84.1276 52.7377 84.257 53.0829C84.3146 53.2268 84.3721 53.3706 84.4296 53.5145C84.4871 53.6583 84.5446 53.8022 84.6022 53.9317C84.6597 54.0755 84.7172 54.2194 84.7747 54.3489C84.8322 54.4927 84.8897 54.6222 84.9329 54.766C84.9904 54.9099 85.0335 55.0394 85.0911 55.1688C85.1486 55.2983 85.1917 55.4422 85.2349 55.5716C85.278 55.7011 85.3355 55.8306 85.3787 55.96C85.4218 56.0895 85.4649 56.219 85.5081 56.3341C85.5512 56.4348 85.58 56.5499 85.5944 56.6649C85.6087 56.78 85.6231 56.8807 85.6375 56.9958C85.6375 57.1109 85.6375 57.2116 85.6231 57.3123C85.6087 57.413 85.5944 57.5281 85.5656 57.6288C85.5368 57.7295 85.5081 57.8302 85.465 57.9309C85.4218 58.0316 85.3787 58.1323 85.3355 58.2186C85.278 58.3049 85.2205 58.4056 85.163 58.4919C85.1054 58.5782 85.0335 58.6645 84.9617 58.7365C84.861 58.8659 84.7603 58.9954 84.6453 59.1105C84.5446 59.24 84.444 59.355 84.3289 59.4845C84.2283 59.5996 84.1276 59.7291 84.0126 59.8442C83.9119 59.9592 83.7969 60.0887 83.6962 60.2038C83.5956 60.3189 83.4805 60.434 83.3799 60.549C83.2792 60.6641 83.1642 60.7792 83.0635 60.8799C82.9628 60.995 82.8478 61.0957 82.7471 61.2108C82.6465 61.3259 82.5315 61.4266 82.4308 61.5273C82.3158 61.6424 82.2007 61.7574 82.0857 61.8581C81.9706 61.9732 81.8556 62.0883 81.7406 62.189C81.6255 62.3041 81.4961 62.4192 81.3811 62.5199C81.266 62.635 81.1366 62.7357 81.0072 62.8507C80.8778 62.9658 80.7627 63.0665 80.6333 63.1816C80.5039 63.2967 80.3745 63.3974 80.2451 63.5125C80.1156 63.6276 79.9862 63.7283 79.8424 63.8434C79.713 63.9584 79.5692 64.0591 79.4398 64.1742C79.3535 64.2461 79.2672 64.3037 79.1809 64.3612C79.0947 64.4188 78.994 64.4619 78.9077 64.5051C78.8071 64.5482 78.7208 64.577 78.6201 64.6058C78.5195 64.6346 78.4188 64.6489 78.3182 64.6633C78.2175 64.6777 78.1168 64.6921 78.0162 64.6921C77.9155 64.6921 77.8149 64.6921 77.7142 64.6777C77.6135 64.6633 77.5129 64.6489 77.4266 64.6202C77.3259 64.5914 77.2397 64.5626 77.139 64.5339C77.024 64.4907 76.8945 64.4475 76.7651 64.4044C76.6357 64.3612 76.5207 64.3181 76.3913 64.2605C76.2618 64.2174 76.1324 64.1598 76.003 64.1167C75.8736 64.0735 75.7442 64.016 75.6004 63.9584C75.4709 63.9009 75.3271 63.8577 75.1977 63.8002C75.0683 63.7427 74.9245 63.6995 74.7951 63.642C74.6513 63.5844 74.5219 63.5269 74.3781 63.4837C74.2343 63.4406 74.1049 63.3686 73.9611 63.3111C73.6303 63.1816 73.2852 63.0378 72.9545 62.9083C72.6237 62.7788 72.293 62.6493 71.9766 62.5199C71.6603 62.3904 71.3439 62.2753 71.0419 62.1746C70.74 62.0595 70.438 61.9588 70.1648 61.8725C69.8915 61.7862 69.6183 61.6999 69.3739 61.6424C69.1294 61.5848 68.8993 61.5273 68.6836 61.4985C68.4679 61.4697 68.281 61.4553 68.1228 61.4553C67.9646 61.4553 67.8208 61.4841 67.7058 61.5273C67.6051 61.5704 67.4901 61.6567 67.3751 61.7574C67.26 61.8725 67.145 62.002 67.0156 62.1746C66.9005 62.3472 66.7711 62.5343 66.6417 62.75C66.5123 62.9658 66.3829 63.196 66.2534 63.4549C66.124 63.7139 66.0377 63.8865 65.8939 64.1742C65.7645 64.4619 65.6207 64.7496 65.4769 65.0661C65.3331 65.3682 65.2037 65.6847 65.0599 66.0156C64.9161 66.3321 64.7723 66.6629 64.6429 66.9938C64.571 67.152 64.5135 67.2959 64.4416 67.4541C64.3697 67.6124 64.3122 67.7562 64.2403 67.9145C64.1684 68.0583 64.1108 68.2166 64.0389 68.3604C63.967 68.5043 63.9095 68.6625 63.8376 68.8064C63.7657 68.9502 63.7082 69.0941 63.6363 69.238C63.5644 69.3818 63.5069 69.5257 63.435 69.6695C63.3631 69.8134 63.3056 69.9429 63.2337 70.0867C63.1618 70.2162 63.1043 70.36 63.0324 70.4751L62.7735 70.3456L62.5147 70.2162L62.2558 70.0867L61.997 69.9572L61.7382 69.8278L61.4793 69.6983L61.2205 69.5688L60.9617 69.4394L61.2205 69.5688L61.4793 69.6983L61.7382 69.8278L61.997 69.9572L62.2558 70.0867L62.5147 70.2162L62.7735 70.3456L63.0324 70.4751C62.9892 70.5758 62.9317 70.6621 62.8742 70.7484C62.8167 70.8348 62.7591 70.9067 62.6872 70.993C62.6153 71.0649 62.5434 71.1369 62.4715 71.2088C62.3996 71.2663 62.3134 71.3383 62.2271 71.3814C62.1408 71.439 62.0545 71.4821 61.9682 71.5253C61.882 71.5684 61.7957 71.6116 61.695 71.6404C61.6087 71.6691 61.5081 71.6979 61.4074 71.7123C61.3068 71.7267 61.2205 71.7411 61.1198 71.7554C61.0336 71.7698 60.9617 71.7698 60.8754 71.7842C60.7891 71.7986 60.7172 71.7986 60.6309 71.813C60.5446 71.8274 60.4727 71.8274 60.3865 71.8418C60.3002 71.8561 60.2139 71.8561 60.142 71.8705C60.0557 71.8705 59.9694 71.8849 59.8832 71.8849C59.7969 71.8849 59.7106 71.8993 59.6243 71.8993C59.538 71.8993 59.4518 71.9137 59.3655 71.9137C59.2792 71.9137 59.1929 71.9281 59.1066 71.9281C59.006 71.9281 58.9197 71.9425 58.819 71.9425C58.7328 71.9425 58.6321 71.9568 58.5458 71.9568C58.4596 71.9568 58.3589 71.9712 58.2726 71.9712C58.1863 71.9712 58.1001 71.9712 57.9994 71.9856C57.9131 71.9856 57.8268 71.9856 57.7406 72C57.6543 72 57.568 72 57.4817 72C57.3954 72 57.3092 72 57.2229 72C57.1366 72 57.0503 72 56.9784 72C56.8922 72 56.8203 72 56.734 72C56.6477 72 56.5614 72 56.4751 72C56.3889 72 56.3026 72 56.2163 72C56.13 72 56.0437 72 55.9575 71.9856C55.8712 71.9856 55.7849 71.9856 55.6842 71.9712C55.598 71.9712 55.4973 71.9568 55.411 71.9568C55.3247 71.9568 55.2241 71.9425 55.1378 71.9425C55.0515 71.9425 54.9509 71.9281 54.8502 71.9281C54.7495 71.9281 54.6633 71.9137 54.577 71.9137C54.4907 71.9137 54.3901 71.8993 54.3038 71.8993C54.2175 71.8993 54.1168 71.8849 54.0306 71.8849C53.9443 71.8705 53.858 71.8705 53.7573 71.8561C53.6711 71.8418 53.5848 71.8418 53.4985 71.8274C53.4122 71.813 53.3259 71.813 53.2397 71.7986C53.1534 71.7842 53.0671 71.7842 52.9808 71.7698C52.8945 71.7554 52.8083 71.7554 52.722 71.7411C52.607 71.7267 52.5063 71.7123 52.4056 71.6835C52.305 71.6547 52.2043 71.626 52.1037 71.5828C52.003 71.5397 51.9167 71.4965 51.8304 71.4533C51.7442 71.3958 51.6579 71.3383 51.5716 71.2807C51.4853 71.2232 51.4134 71.1512 51.3415 71.0793C51.2696 71.0074 51.1977 70.9355 51.1402 70.8492C51.0827 70.7628 51.0252 70.6909 50.9676 70.6046C50.9101 70.5183 50.867 70.432 50.8382 70.3313C50.7807 70.2018 50.7088 70.0723 50.6513 69.9429C50.5938 69.8134 50.5219 69.6839 50.4643 69.5544C50.4068 69.425 50.3349 69.2811 50.2774 69.1516C50.2199 69.0078 50.148 68.8783 50.0905 68.7345C50.033 68.5906 49.9611 68.4467 49.9035 68.3173C49.846 68.1734 49.7741 68.0296 49.7166 67.8857C49.6591 67.7419 49.5872 67.598 49.5297 67.4541C49.4721 67.3103 49.4002 67.1664 49.3427 67.0226C49.1989 66.6917 49.0551 66.3752 48.9257 66.0444C48.7819 65.7279 48.6525 65.4114 48.5087 65.0949C48.3649 64.7928 48.2355 64.4907 48.0917 64.203C47.9479 63.9153 47.8185 63.642 47.689 63.3974C47.5596 63.1385 47.4302 62.9083 47.3008 62.6925C47.1714 62.4767 47.0419 62.2897 46.9269 62.1171C46.8119 61.9445 46.6824 61.815 46.5674 61.6999C46.4524 61.5848 46.3373 61.5129 46.2367 61.4697C46.1216 61.4266 45.9922 61.3978 45.8197 61.3978C45.6615 61.3978 45.4745 61.4122 45.2588 61.441C45.0431 61.4697 44.8274 61.5273 44.5686 61.5848C44.3241 61.6424 44.0509 61.7287 43.7777 61.815C43.5045 61.9013 43.2025 62.002 42.9005 62.1171C42.5986 62.2322 42.2822 62.3473 41.9658 62.4623C41.6495 62.5774 41.3188 62.7213 40.988 62.8507C40.6573 62.9802 40.3265 63.1241 39.9814 63.2535C39.8376 63.3111 39.6938 63.3686 39.55 63.4262C39.4062 63.4837 39.2624 63.5413 39.133 63.5988C39.0036 63.6563 38.8454 63.7139 38.716 63.7714C38.5722 63.829 38.4428 63.8865 38.299 63.9297C38.1552 63.9872 38.0258 64.0304 37.8963 64.0879C37.7669 64.1455 37.6231 64.1886 37.4937 64.2318C37.3643 64.2749 37.2349 64.3325 37.1055 64.3756C36.976 64.4188 36.8466 64.4619 36.7316 64.5051C36.6309 64.5482 36.5159 64.577 36.4008 64.5914C36.2858 64.6058 36.1851 64.6202 36.0701 64.6346C35.9551 64.6346 35.8544 64.6346 35.7537 64.6202C35.6531 64.6058 35.538 64.5914 35.4374 64.5626C35.3367 64.5339 35.2361 64.5051 35.1354 64.4619C35.0347 64.4188 34.9341 64.3756 34.8478 64.3325C34.7615 64.2749 34.6609 64.2174 34.5746 64.1598C34.4883 64.1023 34.402 64.0304 34.3301 63.9584C34.2007 63.8577 34.0713 63.757 33.9563 63.642C33.8268 63.5413 33.7118 63.4406 33.5824 63.3255C33.453 63.2248 33.3379 63.1241 33.2229 63.009C33.1078 62.9083 32.9784 62.7932 32.8634 62.6925C32.7484 62.5918 32.6333 62.4767 32.5183 62.376C32.4032 62.2753 32.2882 62.1602 32.1875 62.0595C32.0725 61.9588 31.9718 61.8438 31.8568 61.7431C31.7418 61.6424 31.6411 61.5273 31.5404 61.4266C31.4254 61.3115 31.3104 61.1964 31.2097 61.0813C31.0947 60.9662 30.9796 60.8511 30.879 60.7361C30.7639 60.621 30.6633 60.4915 30.5482 60.3764C30.4332 60.2613 30.3325 60.1319 30.2175 60.0024C30.1025 59.8729 30.0018 59.7578 29.8868 59.6284C29.7717 59.4989 29.6711 59.3694 29.556 59.24C29.441 59.1105 29.3403 58.981 29.2253 58.8372C29.1102 58.7077 29.0096 58.5638 28.8945 58.4344C28.8226 58.348 28.7651 58.2617 28.7076 58.1754C28.6501 58.0891 28.607 57.9884 28.5638 57.9021C28.5207 57.8014 28.4919 57.7151 28.4632 57.6144C28.4344 57.5137 28.42 57.413 28.4056 57.3267C28.3913 57.226 28.3769 57.1253 28.3769 57.0246C28.3769 56.9239 28.3769 56.8232 28.3913 56.7225C28.4056 56.6218 28.42 56.5211 28.4488 56.4348C28.4775 56.3341 28.5063 56.2477 28.535 56.1471C28.5782 56.032 28.6213 55.9025 28.6645 55.773C28.7076 55.6436 28.7507 55.5285 28.8083 55.399C28.8514 55.2695 28.9089 55.1401 28.9521 55.0106C28.9952 54.8811 29.0527 54.7516 29.1102 54.6078C29.1678 54.4783 29.2109 54.3345 29.2684 54.205C29.3259 54.0755 29.3691 53.9317 29.4266 53.8022C29.4841 53.6583 29.5416 53.5289 29.5848 53.385C29.6423 53.2412 29.6998 53.1117 29.7573 52.9678C29.8868 52.637 30.0306 52.2917 30.16 51.9608C30.2894 51.63 30.4188 51.2991 30.5482 50.9826C30.6777 50.6661 30.7927 50.3496 30.8934 50.0476C31.0084 49.7454 31.109 49.4434 31.1953 49.17C31.2816 48.8967 31.3679 48.6234 31.4254 48.3788C31.4829 48.1343 31.5404 47.9041 31.5692 47.6883C31.598 47.4725 31.6123 47.2855 31.6123 47.1273C31.6123 46.969 31.5836 46.8252 31.5404 46.7101C31.4973 46.6094 31.411 46.4943 31.3104 46.3792C31.1953 46.2641 31.0659 46.1491 30.8934 46.0196C30.7208 45.8901 30.5339 45.775 30.3182 45.6456C30.1025 45.5161 29.8724 45.3866 29.6135 45.2571C29.3547 45.1277 29.0959 44.9838 28.8083 44.8543C28.5207 44.7249 28.2331 44.581 27.9167 44.4372C27.6147 44.2933 27.2984 44.1638 26.9676 44.02C26.6513 43.8761 26.3206 43.7323 25.9898 43.6028C25.8316 43.5309 25.6878 43.4733 25.5297 43.4014C25.3715 43.3295 25.2277 43.2719 25.0695 43.2C24.9257 43.1281 24.7675 43.0705 24.6237 42.9986C24.4799 42.9267 24.3218 42.8691 24.178 42.7972C24.0342 42.7253 23.8904 42.6677 23.7466 42.5958C23.6028 42.5239 23.459 42.4663 23.3295 42.3944C23.1857 42.3225 23.0563 42.2649 22.9125 42.193C22.7831 42.1211 22.6393 42.0635 22.5243 41.9916L22.6537 41.7327L22.7831 41.4737L22.9125 41.2148L23.0419 40.9558L23.1714 40.6969L23.3008 40.438L23.4302 40.179L23.5596 39.9201L23.4302 40.179L23.3008 40.438L23.1714 40.6969L23.0419 40.9558L22.9125 41.2148L22.7831 41.4737L22.6537 41.7327L22.5243 41.9916C22.4236 41.9485 22.3373 41.8909 22.251 41.8334C22.1648 41.7758 22.0929 41.7183 22.0066 41.6464C21.9347 41.5744 21.8628 41.5025 21.7909 41.4306C21.7334 41.3586 21.6615 41.2723 21.6183 41.186C21.5608 41.0997 21.5177 41.0134 21.4745 40.9271C21.4314 40.8408 21.3883 40.7544 21.3595 40.6537C21.3307 40.5674 21.302 40.4667 21.2876 40.366C21.2732 40.2653 21.2588 40.179 21.2445 40.0783C21.2301 39.992 21.2301 39.9201 21.2157 39.8338C21.2013 39.7475 21.2013 39.6755 21.1869 39.5892C21.1726 39.5029 21.1726 39.431 21.1582 39.3447C21.1438 39.2583 21.1438 39.172 21.1294 39.1001C21.115 39.0138 21.115 38.9275 21.115 38.8412C21.115 38.7548 21.1007 38.6685 21.1007 38.5822C21.1007 38.4959 21.0863 38.4096 21.0863 38.3233C21.0863 38.237 21.0719 38.1507 21.0719 38.0643C21.0719 37.9636 21.0575 37.8773 21.0575 37.7766C21.0575 37.6903 21.0431 37.5896 21.0431 37.5033C21.0431 37.417 21.0288 37.3163 21.0288 37.23C21.0288 37.1437 21.0288 37.0573 21.0144 36.9566C21.0144 36.8703 21.0144 36.784 21 36.6977C21 36.6114 21 36.5251 21 36.4388C21 36.3524 21 36.2661 21 36.1798C21 36.0935 21 36.0072 21 35.9353C21 35.8489 21 35.777 21 35.6907C21 35.6044 21 35.5181 21 35.4318C21 35.3455 21 35.2591 21 35.1728C21 35.0865 21 35.0002 21.0144 34.9139C21.0288 34.8276 21.0144 34.7413 21.0288 34.6406C21.0288 34.5542 21.0431 34.4535 21.0431 34.3672C21.0431 34.2809 21.0575 34.1802 21.0575 34.0939C21.0575 34.0076 21.0719 33.9069 21.0719 33.8062C21.0719 33.7055 21.0863 33.6192 21.0863 33.5329C21.0863 33.4466 21.1007 33.3459 21.1007 33.2595C21.1007 33.1732 21.115 33.0725 21.115 32.9862C21.1294 32.8999 21.1294 32.8136 21.1438 32.7129C21.1582 32.6266 21.1582 32.5403 21.1726 32.4539C21.1869 32.3676 21.1869 32.2813 21.2013 32.195C21.2157 32.1087 21.2157 32.0224 21.2301 31.9361C21.2445 31.8498 21.2445 31.7634 21.2588 31.6771C21.2732 31.562 21.2876 31.4613 21.3164 31.3606C21.3451 31.2599 21.3739 31.1592 21.417 31.0585C21.4602 30.9578 21.5033 30.8715 21.5464 30.7852C21.604 30.6989 21.6615 30.6126 21.719 30.5263C21.7765 30.44 21.8484 30.368 21.9203 30.2961C21.9922 30.2242 22.0641 30.1522 22.1504 30.0947C22.2367 30.0372 22.3086 29.9796 22.3948 29.9221C22.4811 29.8645 22.5674 29.8214 22.6681 29.7926C22.7975 29.7351 22.9269 29.6631 23.0563 29.6056C23.1857 29.5481 23.3152 29.4761 23.4446 29.4186C23.574 29.361 23.7178 29.2891 23.8472 29.2316C23.991 29.174 24.1204 29.1021 24.2642 29.0446C24.408 28.987 24.5518 28.9151 24.6812 28.8575C24.825 28.8 24.9688 28.7281 25.1126 28.6705C25.2564 28.613 25.4002 28.5411 25.544 28.4835C25.6878 28.426 25.8316 28.354 25.9754 28.2965C26.3062 28.1526 26.6225 28.0088 26.9533 27.8793C27.2696 27.7355 27.586 27.606 27.9023 27.4621C28.2043 27.3183 28.5063 27.1888 28.7939 27.045C29.0815 26.9155 29.3547 26.7716 29.5992 26.6422C29.858 26.5127 30.0881 26.3832 30.3038 26.2537C30.5195 26.1243 30.7064 25.9948 30.879 25.8797C31.0515 25.7646 31.1809 25.6352 31.296 25.5201C31.411 25.405 31.4829 25.2899 31.5261 25.1892C31.5692 25.0741 31.598 24.9447 31.598 24.772C31.598 24.6138 31.5836 24.4268 31.5548 24.211C31.5261 23.9952 31.4685 23.7794 31.411 23.5205C31.3535 23.2759 31.2672 23.0026 31.1809 22.7293C31.0947 22.4559 30.994 22.1538 30.879 21.8517C30.7639 21.5497 30.6489 21.2332 30.5339 20.9167C30.4044 20.6002 30.275 20.2693 30.1456 19.9385C30.0162 19.6076 29.8724 19.2767 29.743 18.9315C29.6854 18.7876 29.6279 18.6438 29.5704 18.4999C29.5129 18.356 29.4554 18.2122 29.3978 18.0827C29.3403 17.9389 29.2828 17.795 29.2253 17.6655C29.1678 17.5217 29.1102 17.3922 29.0671 17.2484C29.0096 17.1045 28.9664 16.975 28.9089 16.8456C28.8514 16.7161 28.8083 16.5722 28.7651 16.4428C28.722 16.3133 28.6645 16.1838 28.6213 16.0543C28.5782 15.9249 28.5351 15.7954 28.4919 15.6803C28.4488 15.5796 28.42 15.4645 28.4056 15.3495C28.3913 15.2344 28.3769 15.1337 28.3625 15.0186C28.3625 14.9035 28.3625 14.8028 28.3769 14.7021C28.3913 14.6014 28.4056 14.4863 28.4344 14.3856C28.4632 14.2849 28.4919 14.1842 28.535 14.0835C28.5782 13.9828 28.6213 13.8821 28.6645 13.7958C28.722 13.7095 28.7795 13.6088 28.837 13.5225C28.8945 13.4362 28.9664 13.3499 29.0383 13.2779C29.139 13.1485 29.2397 13.019 29.3547 12.9039C29.4554 12.7744 29.556 12.6593 29.6711 12.5299C29.7717 12.4004 29.8724 12.2853 29.9874 12.1702C30.0881 12.0551 30.2031 11.9257 30.3038 11.8106C30.4044 11.6955 30.5195 11.5804 30.6201 11.4653C30.7208 11.3503 30.8358 11.2352 30.9365 11.1345C31.0371 11.0338 31.1522 10.9187 31.2528 10.8036C31.3535 10.6885 31.4685 10.5878 31.5692 10.4871C31.6842 10.372 31.7993 10.2569 31.9143 10.1562C32.0294 10.0412 32.1444 9.92607 32.2594 9.82538C32.3745 9.71029 32.5039 9.60959 32.6189 9.49451C32.734 9.37942 32.8634 9.27872 32.9928 9.16364C33.1222 9.04855 33.2373 8.94785 33.3667 8.83277C33.4961 8.71768 33.6255 8.61698 33.7549 8.5019C33.8844 8.38681 34.0138 8.28611 34.1576 8.17103C34.287 8.05594 34.4308 7.95525 34.5602 7.84016C34.6465 7.76823 34.7328 7.71069 34.8191 7.65315C34.9053 7.5956 35.006 7.55245 35.0923 7.50929C35.1929 7.46613 35.2792 7.43736 35.3799 7.40859C35.4805 7.37982 35.5812 7.36543 35.6675 7.35105C35.7681 7.33666 35.8688 7.32228 35.9694 7.32228C36.0701 7.32228 36.1708 7.32228 36.2714 7.33666C36.3721 7.35105 36.4727 7.36544 36.559 7.39421C36.6597 7.42298 36.746 7.45175 36.8466 7.48052C36.9617 7.52368 37.0911 7.56683 37.2205 7.60999C37.3499 7.65315 37.4649 7.6963 37.5944 7.75385C37.7238 7.797 37.8532 7.85455 37.9826 7.8977C38.112 7.94086 38.2415 7.9984 38.3853 8.05594C38.5291 8.11349 38.6585 8.15664 38.7879 8.21419C38.9173 8.27173 39.0611 8.31489 39.1905 8.37243C39.3343 8.42997 39.4638 8.48751 39.6075 8.53067C39.7513 8.58821 39.8808 8.64575 40.0246 8.7033C40.3553 8.83277 40.7004 8.97662 41.0312 9.10609C41.3619 9.23557 41.6926 9.36504 42.009 9.49451C42.3253 9.62398 42.6417 9.73906 42.9437 9.83976C43.2457 9.95485 43.5476 10.0555 43.8209 10.1419C44.0941 10.2282 44.3673 10.3145 44.6117 10.372C44.8562 10.4296 45.0863 10.4871 45.302 10.5159C45.5177 10.5447 45.7046 10.559 45.8628 10.559C46.021 10.559 46.1648 10.5303 46.2798 10.4871C46.3805 10.444 46.4955 10.3576 46.6105 10.2569C46.7256 10.1419 46.8406 10.0124 46.97 9.83976C47.0851 9.66713 47.2145 9.48012 47.3439 9.26434C47.4733 9.04855 47.6028 8.81838 47.7322 8.55944C47.8616 8.3005 48.0054 8.04156 48.1348 7.75385C48.2642 7.46613 48.408 7.17842 48.5518 6.86194C48.6956 6.55984 48.825 6.24336 48.9688 5.91249C49.1126 5.596 49.2564 5.26513 49.3859 4.93427C49.4578 4.77602 49.5153 4.63217 49.5872 4.47393C49.6591 4.31568 49.7166 4.17183 49.7885 4.01359C49.8604 3.85534 49.9179 3.71149 49.9898 3.56763C50.0617 3.42378 50.1192 3.26553 50.1911 3.12168C50.263 2.97782 50.3205 2.83397 50.3924 2.69011C50.4643 2.54625 50.5219 2.4024 50.5938 2.25854C50.6657 2.11469 50.7232 1.98521 50.7951 1.84136C50.867 1.71189 50.9245 1.56803 50.9964 1.45295L51.2552 1.58242L51.5141 1.71189L51.7729 1.84136L52.0318 1.97083L52.2906 2.1003L52.5494 2.22977L52.8083 2.35924L53.0671 2.48871L52.8083 2.35924L52.5063 2.31608L52.2475 2.17223L51.9886 2.04276L51.7298 1.91329L51.4709 1.78382L51.2121 1.65435L50.9533 1.52488C50.9964 1.42418 51.0539 1.33786 51.1114 1.25155C51.169 1.16523 51.2265 1.09331 51.2984 1.00699C51.3703 0.935065 51.4422 0.863137 51.5141 0.791209C51.586 0.733666 51.6723 0.661738 51.7585 0.618581C51.8448 0.561039 51.9311 0.517882 52.0174 0.474725C52.1037 0.431568 52.1899 0.388412 52.2906 0.35964C52.3769 0.330869 52.4775 0.302098 52.5782 0.287712C52.6788 0.273327 52.7651 0.258941 52.8658 0.244555C52.9521 0.23017 53.024 0.23017 53.1102 0.215784C53.1965 0.201399 53.2684 0.201399 53.3547 0.187013C53.441 0.172627 53.5129 0.172627 53.5992 0.158242C53.6854 0.143856 53.7717 0.143856 53.8436 0.129471C53.9299 0.115085 54.0162 0.115085 54.1025 0.115085C54.1887 0.115085 54.275 0.100699 54.3613 0.100699C54.4476 0.100699 54.5339 0.0863137 54.6201 0.0863137C54.7064 0.0863137 54.7927 0.0719281 54.879 0.0719281C54.9796 0.0719281 55.0659 0.0575425 55.1666 0.0575425C55.2672 0.0575425 55.3535 0.0431568 55.4398 0.0431568C55.5261 0.0431568 55.6267 0.0287712 55.713 0.0287712C55.7993 0.0287712 55.8856 0.0287712 55.9862 0.0143856C56.0725 0.0143856 56.1588 0.0143856 56.2451 0C56.3313 0 56.4176 0 56.5039 0C56.5902 0 56.6764 0 56.7627 0C56.849 0.0143856 56.9353 0.0143856 57.0072 0.0143856ZM58.8622 4.7041C58.7903 4.7041 58.7184 4.68971 58.6465 4.68971C58.5746 4.68971 58.5027 4.68971 58.4308 4.67532C58.3589 4.67532 58.287 4.67532 58.2007 4.66094C58.1288 4.66094 58.0425 4.66094 57.9706 4.66094C57.8987 4.66094 57.8125 4.66094 57.7406 4.66094C57.6543 4.66094 57.5824 4.66094 57.4961 4.66094C57.4098 4.66094 57.3379 4.66094 57.2516 4.66094C57.1654 4.66094 57.0791 4.66094 56.9928 4.66094C56.9065 4.66094 56.8203 4.66094 56.734 4.66094C56.6477 4.66094 56.5758 4.66094 56.4895 4.66094C56.4032 4.66094 56.3313 4.66094 56.2451 4.66094C56.1588 4.66094 56.0869 4.66094 56.015 4.66094C55.9431 4.66094 55.8568 4.66094 55.7849 4.66094C55.713 4.66094 55.6411 4.66094 55.5548 4.67532C55.4829 4.67532 55.411 4.67532 55.3391 4.68971C55.2672 4.7041 55.1953 4.7041 55.1234 4.7041C55.0947 4.7041 55.0803 4.7041 55.0515 4.7041C55.0228 4.7041 54.994 4.7041 54.9796 4.7041C54.9509 4.7041 54.9221 4.7041 54.9077 4.7041C54.879 4.7041 54.8502 4.7041 54.8358 4.7041C54.8071 4.7041 54.7783 4.7041 54.7639 4.7041C54.7352 4.7041 54.7064 4.7041 54.692 4.7041C54.6633 4.7041 54.6345 4.7041 54.6201 4.7041C54.5914 4.7041 54.5626 4.7041 54.5482 4.7041C54.5051 4.79041 54.462 4.87672 54.4332 4.96304C54.3901 5.04935 54.3613 5.13566 54.3182 5.22198C54.275 5.30829 54.2463 5.39461 54.2031 5.48092C54.16 5.56723 54.1312 5.65355 54.0881 5.73986C54.0449 5.82617 54.0162 5.91249 53.973 5.9988C53.9299 6.08511 53.9011 6.17143 53.858 6.25774C53.8149 6.34406 53.7861 6.43037 53.743 6.51668C53.6998 6.603 53.6711 6.68931 53.6279 6.77562C53.441 7.20719 53.254 7.63876 53.0671 8.07033C52.8802 8.5019 52.6789 8.91908 52.4919 9.33626C52.2906 9.75345 52.1037 10.1562 51.888 10.5447C51.6866 10.9331 51.4709 11.3071 51.2552 11.6667C51.0395 12.0264 50.8095 12.3572 50.565 12.6737C50.3206 12.9902 50.0761 13.2779 49.8173 13.5369C49.5584 13.7958 49.2852 14.0404 48.9976 14.2418C48.71 14.4432 48.408 14.6158 48.0773 14.7596C47.7466 14.9035 47.4014 15.0042 47.0419 15.0617C46.6824 15.1337 46.3229 15.1624 45.9347 15.1624C45.5608 15.1624 45.1582 15.1337 44.7699 15.0761C44.3673 15.0186 43.9646 14.9467 43.5476 14.846C43.1306 14.7453 42.7136 14.6302 42.2822 14.4863C41.8508 14.3568 41.4194 14.1986 40.9736 14.0404C40.5422 13.8821 40.0965 13.7095 39.6507 13.5369C39.2049 13.3642 38.7591 13.1772 38.3134 13.0046C38.2271 13.019 38.1552 12.9902 38.0689 12.9614C37.997 12.9327 37.9107 12.9039 37.8388 12.8751C37.7669 12.8464 37.6806 12.8176 37.6087 12.7888C37.5368 12.76 37.4506 12.7313 37.3787 12.7025C37.3068 12.6737 37.2205 12.645 37.1486 12.6162C37.0767 12.5874 36.9904 12.5586 36.9185 12.5299C36.8466 12.5011 36.7603 12.4723 36.6884 12.4436C36.6165 12.4148 36.5303 12.386 36.4584 12.3572C36.3865 12.4148 36.3289 12.4723 36.257 12.5299C36.1851 12.5874 36.1276 12.645 36.0557 12.7169C35.9838 12.7744 35.9263 12.832 35.8544 12.9039C35.7825 12.9758 35.725 13.0334 35.6531 13.0909C35.5812 13.1485 35.5237 13.2204 35.4518 13.2779C35.3799 13.3355 35.3223 13.4074 35.2504 13.4649C35.1785 13.5369 35.121 13.5944 35.0491 13.6663C34.9772 13.7383 34.9197 13.7958 34.8478 13.8677C34.7759 13.9397 34.7184 13.9972 34.6465 14.0691C34.5746 14.1411 34.5171 14.1986 34.4452 14.2705C34.3733 14.3425 34.3158 14.4 34.2582 14.4719C34.2007 14.5439 34.1288 14.6014 34.0713 14.6733C34.0138 14.7453 33.9419 14.8028 33.8844 14.8747C33.8268 14.9467 33.7549 15.0042 33.6974 15.0761C33.6399 15.1481 33.5824 15.2056 33.5105 15.2775C33.453 15.3495 33.3954 15.407 33.3379 15.4789C33.3667 15.5508 33.3954 15.6372 33.4242 15.7091C33.453 15.781 33.4817 15.8673 33.5105 15.9393C33.5392 16.0112 33.568 16.0975 33.5968 16.1694C33.6255 16.2414 33.6543 16.3277 33.683 16.3996C33.7118 16.4715 33.7406 16.5578 33.7693 16.6298C33.7981 16.7017 33.8268 16.788 33.8556 16.8599C33.8844 16.9319 33.9131 17.0182 33.9419 17.0901C33.9706 17.162 33.9994 17.2484 34.0282 17.3203C34.2007 17.7662 34.3877 18.2122 34.5602 18.6581C34.7328 19.1041 34.9053 19.5501 35.0635 19.9816C35.2217 20.4132 35.3655 20.8591 35.5093 21.2907C35.6387 21.7223 35.7681 22.1395 35.8688 22.5566C35.9694 22.9738 36.0413 23.3766 36.0989 23.7794C36.1564 24.1822 36.1851 24.5706 36.1851 24.9447C36.1851 25.3187 36.1564 25.6927 36.0845 26.0523C36.0126 26.412 35.9263 26.7572 35.7825 27.0881C35.6531 27.4046 35.4805 27.7067 35.2648 28.0088C35.0635 28.2965 34.8191 28.5698 34.5602 28.8288C34.3014 29.0877 33.9994 29.3467 33.6974 29.5768C33.3811 29.8214 33.0503 30.0372 32.6908 30.2673C32.3313 30.4831 31.9575 30.6989 31.5692 30.9003C31.1809 31.1017 30.7783 31.3031 30.3613 31.5045C29.9443 31.7059 29.5273 31.8929 29.0959 32.0799C28.6645 32.2669 28.2331 32.4539 27.8017 32.641C27.7154 32.6841 27.6291 32.7129 27.5428 32.756C27.4566 32.7992 27.3703 32.828 27.284 32.8711C27.1977 32.9143 27.1114 32.9431 27.0252 32.9862C26.9389 33.0294 26.8526 33.0581 26.7663 33.1013C26.68 33.1445 26.5938 33.1732 26.5075 33.2164C26.4212 33.2595 26.3349 33.2883 26.2487 33.3315C26.1624 33.3746 26.0761 33.4034 25.9898 33.4466C25.9035 33.4897 25.8173 33.5329 25.731 33.5616C25.731 33.5904 25.731 33.6192 25.731 33.6336C25.731 33.6623 25.731 33.6911 25.731 33.7055C25.731 33.7343 25.731 33.763 25.731 33.7774C25.731 33.8062 25.731 33.835 25.731 33.8493C25.731 33.8781 25.731 33.9069 25.731 33.9213C25.731 33.9501 25.731 33.9788 25.731 33.9932C25.731 34.022 25.731 34.0508 25.731 34.0651C25.731 34.0939 25.731 34.1227 25.731 34.1371C25.731 34.209 25.7166 34.2809 25.7166 34.3528C25.7166 34.4248 25.7166 34.4967 25.7022 34.5686C25.7022 34.6406 25.7022 34.7125 25.6878 34.7988C25.6878 34.8707 25.6878 34.957 25.6878 35.029C25.6878 35.1009 25.6878 35.1872 25.6878 35.2591C25.6878 35.3455 25.6878 35.4174 25.6878 35.5037C25.6878 35.59 25.6878 35.6619 25.6878 35.7483C25.6878 35.8346 25.6878 35.9209 25.6878 36.0072C25.6878 36.0935 25.6878 36.1798 25.6878 36.2661C25.6878 36.3524 25.6878 36.4244 25.6878 36.5107C25.6878 36.597 25.6878 36.6689 25.6878 36.7552C25.6878 36.8416 25.6878 36.9135 25.6878 36.9854C25.6878 37.0573 25.6878 37.1437 25.6878 37.2156C25.6878 37.2875 25.6878 37.3594 25.7022 37.4458C25.7022 37.5177 25.7022 37.5896 25.7166 37.6615C25.7166 37.7335 25.731 37.8054 25.731 37.8773C25.731 37.9061 25.731 37.9205 25.731 37.9493C25.731 37.978 25.731 38.0068 25.731 38.0212C25.731 38.0499 25.731 38.0787 25.731 38.0931C25.731 38.1219 25.731 38.1507 25.731 38.165C25.731 38.1938 25.731 38.2226 25.731 38.237C25.731 38.2657 25.731 38.2945 25.731 38.3089C25.731 38.3377 25.731 38.3664 25.731 38.3808C25.731 38.4096 25.731 38.4384 25.731 38.4527C25.8173 38.4959 25.9035 38.5391 25.9898 38.5678C26.0761 38.611 26.1624 38.6398 26.2487 38.6829C26.3349 38.7261 26.4212 38.7548 26.5075 38.798C26.5938 38.8412 26.68 38.8699 26.7663 38.9131C26.8526 38.9562 26.9389 38.985 27.0252 39.0282C27.1114 39.0713 27.1977 39.1001 27.284 39.1433C27.3703 39.1864 27.4566 39.2152 27.5428 39.2583C27.6291 39.3015 27.7154 39.3303 27.8017 39.3734C28.2331 39.5604 28.6645 39.7475 29.0959 39.9345C29.5273 40.1215 29.9443 40.3229 30.3613 40.5099C30.7783 40.7113 31.1809 40.8983 31.5692 41.1141C31.9575 41.3155 32.3313 41.5313 32.6908 41.7471C33.0503 41.9628 33.3811 42.193 33.6974 42.4376C34.0138 42.6821 34.3014 42.9267 34.5602 43.1856C34.8191 43.4446 35.0635 43.7179 35.2648 44.0056C35.4661 44.2933 35.6387 44.5954 35.7825 44.9263C35.9263 45.2571 36.027 45.6024 36.0845 45.962C36.142 46.3217 36.1851 46.6813 36.1851 47.0697C36.1851 47.4438 36.1564 47.8465 36.0989 48.235C36.0413 48.6378 35.9694 49.0406 35.8688 49.4577C35.7681 49.8749 35.6531 50.2921 35.5093 50.7237C35.3799 51.1552 35.2217 51.5868 35.0635 52.0184C34.9053 52.45 34.7328 52.8959 34.5602 53.3419C34.3877 53.7878 34.2007 54.2338 34.0282 54.6797C33.9994 54.7516 33.9706 54.838 33.9419 54.9099C33.9131 54.9818 33.8844 55.0681 33.8556 55.1401C33.8268 55.212 33.7981 55.2983 33.7693 55.3702C33.7406 55.4422 33.7118 55.5285 33.683 55.6004C33.6543 55.6723 33.6255 55.7586 33.5968 55.8306C33.568 55.9025 33.5392 55.9888 33.5105 56.0607C33.4817 56.1327 33.453 56.219 33.4242 56.2909C33.3954 56.3628 33.3667 56.4491 33.3379 56.5211C33.3954 56.593 33.453 56.6505 33.5105 56.7225C33.568 56.7944 33.6255 56.8519 33.6974 56.9239C33.7549 56.9958 33.8125 57.0533 33.8844 57.1253C33.9419 57.1972 34.0138 57.2547 34.0713 57.3267C34.1288 57.3986 34.2007 57.4561 34.2582 57.5281C34.3158 57.6 34.3877 57.6575 34.4452 57.7295C34.5171 57.8014 34.5746 57.8589 34.6465 57.9309C34.7184 58.0028 34.7759 58.0603 34.8478 58.1323C34.9197 58.2042 34.9772 58.2617 35.0491 58.3337C35.121 58.4056 35.1785 58.4631 35.2504 58.5351C35.3223 58.607 35.3799 58.6645 35.4518 58.7221C35.5237 58.7796 35.5812 58.8515 35.6531 58.9091C35.725 58.9666 35.7825 59.0386 35.8544 59.0961C35.9263 59.1536 35.9838 59.2256 36.0557 59.2831C36.1276 59.3407 36.1851 59.3982 36.257 59.4701C36.3289 59.5277 36.3865 59.5852 36.4584 59.6428C36.5303 59.614 36.6165 59.5852 36.6884 59.5564C36.7603 59.5277 36.8466 59.4989 36.9185 59.4701C36.9904 59.4414 37.0767 59.4126 37.1486 59.3838C37.2205 59.355 37.3068 59.3263 37.3787 59.2975C37.4506 59.2687 37.5368 59.24 37.6087 59.2112C37.6806 59.1824 37.7669 59.1536 37.8388 59.1249C37.9107 59.0961 37.997 59.0673 38.0689 59.0386C38.1408 59.0098 38.2271 58.981 38.299 58.9522C38.7448 58.7796 39.1905 58.5926 39.6363 58.42C40.0821 58.2473 40.5279 58.0747 40.9593 57.9165C41.3907 57.7582 41.8364 57.6144 42.2678 57.4705C42.6992 57.3411 43.1162 57.2116 43.5333 57.1109C43.9503 57.0102 44.3529 56.9383 44.7555 56.8807C45.1582 56.8232 45.5464 56.7944 45.9203 56.7944C46.2942 56.7944 46.6681 56.8232 47.0276 56.8951C47.3871 56.9526 47.7322 57.0533 48.0629 57.1972C48.3793 57.3267 48.6812 57.4993 48.9832 57.7151C49.2708 57.9165 49.544 58.161 49.8029 58.42C50.0617 58.6789 50.3205 58.981 50.5506 59.2831C50.7951 59.5996 51.0108 59.9305 51.2409 60.2901C51.4566 60.6497 51.6723 61.0238 51.8736 61.4122C52.0749 61.8006 52.2762 62.2034 52.4775 62.6206C52.6788 63.0378 52.8658 63.4549 53.0527 63.8865C53.2397 64.3181 53.4266 64.7496 53.6135 65.1812C53.6567 65.2675 53.6854 65.3538 53.7286 65.4402C53.7717 65.5265 53.8005 65.6128 53.8436 65.6991C53.8868 65.7854 53.9155 65.8717 53.9587 65.958C54.0018 66.0444 54.0306 66.1307 54.0737 66.217C54.1168 66.3033 54.1456 66.3896 54.1887 66.4759C54.2319 66.5622 54.2606 66.6486 54.3038 66.7349C54.3469 66.8212 54.3757 66.9075 54.4188 66.9938C54.462 67.0801 54.5051 67.1664 54.5339 67.2527C54.5626 67.2527 54.5914 67.2527 54.6057 67.2527C54.6345 67.2527 54.6633 67.2527 54.6777 67.2527C54.7064 67.2527 54.7352 67.2527 54.7495 67.2527C54.7783 67.2527 54.8071 67.2527 54.8214 67.2527C54.8502 67.2527 54.879 67.2527 54.8933 67.2527C54.9221 67.2527 54.9509 67.2527 54.9652 67.2527C54.994 67.2527 55.0228 67.2527 55.0371 67.2527C55.0659 67.2527 55.0947 67.2527 55.109 67.2527C55.1809 67.2527 55.2528 67.2671 55.3247 67.2671C55.3966 67.2671 55.4685 67.2671 55.5404 67.2815C55.6123 67.2815 55.6842 67.2815 55.7705 67.2959C55.8424 67.2959 55.9287 67.2959 56.0006 67.2959C56.0725 67.2959 56.1588 67.2959 56.2307 67.2959C56.317 67.2959 56.3889 67.2959 56.4751 67.2959C56.5614 67.2959 56.6333 67.2959 56.7196 67.2959C56.8059 67.2959 56.8922 67.2959 56.9784 67.2959C57.0647 67.2959 57.151 67.2959 57.2373 67.2959C57.3235 67.2959 57.3954 67.2959 57.4817 67.2959C57.568 67.2959 57.6399 67.2959 57.7262 67.2959C57.8125 67.2959 57.8844 67.2959 57.9563 67.2959C58.0282 67.2959 58.1144 67.2959 58.1863 67.2959C58.2582 67.2959 58.3301 67.2959 58.4164 67.2815C58.4883 67.2815 58.5602 67.2815 58.6321 67.2671C58.704 67.2671 58.7759 67.2527 58.8478 67.2527C58.8766 67.2527 58.8909 67.2527 58.9197 67.2527C58.9485 67.2527 58.9772 67.2527 58.9916 67.2527C59.0204 67.2527 59.0491 67.2527 59.0635 67.2527C59.0779 67.2527 59.121 67.2527 59.1354 67.2527C59.1642 67.2527 59.1929 67.2527 59.2073 67.2527C59.2361 67.2527 59.2648 67.2527 59.2792 67.2527C59.308 67.2527 59.3367 67.2527 59.3511 67.2527C59.3799 67.2527 59.4086 67.2527 59.423 67.2527C59.4661 67.1664 59.5093 67.0801 59.538 66.9938C59.5812 66.9075 59.6099 66.8212 59.6531 66.7349C59.6962 66.6486 59.725 66.5622 59.7681 66.4759C59.8113 66.3896 59.84 66.3033 59.8832 66.217C59.9263 66.1307 59.9551 66.0444 59.9982 65.958C60.0413 65.8717 60.0701 65.7854 60.1132 65.6991C60.1564 65.6128 60.1851 65.5265 60.2283 65.4402C60.2714 65.3538 60.3002 65.2675 60.3433 65.1812C60.5303 64.7496 60.7172 64.3181 60.9041 63.8865C61.0911 63.4549 61.2924 63.0378 61.4793 62.6206C61.6663 62.2034 61.8676 61.8006 62.0833 61.4122C62.2846 61.0238 62.5003 60.6497 62.716 60.2901C62.9317 59.9305 63.1618 59.5996 63.4062 59.2831C63.6507 58.9666 63.8951 58.6789 64.154 58.42C64.4128 58.161 64.686 57.9165 64.9736 57.7151C65.2612 57.5137 65.5632 57.3411 65.8939 57.1972C66.2247 57.0533 66.5698 56.9526 66.9293 56.8951C67.2888 56.8232 67.6483 56.7944 68.0365 56.7944C68.4104 56.7944 68.8131 56.8232 69.2013 56.8807C69.604 56.9383 70.0066 57.0102 70.4236 57.1109C70.8406 57.2116 71.2576 57.3267 71.689 57.4705C72.1204 57.6 72.5518 57.7582 72.9976 57.9165C73.429 58.0747 73.8748 58.2473 74.3205 58.42C74.7663 58.5926 75.2121 58.7796 75.6579 58.9522C75.7298 58.981 75.8161 59.0098 75.888 59.0386C75.9599 59.0673 76.0461 59.0961 76.118 59.1249C76.1899 59.1536 76.2762 59.1824 76.3481 59.2112C76.42 59.24 76.5063 59.2687 76.5782 59.2975C76.6501 59.3263 76.7364 59.355 76.8083 59.3838C76.8802 59.4126 76.9664 59.4414 77.0383 59.4701C77.1102 59.4989 77.1965 59.5277 77.2684 59.5564C77.3403 59.5852 77.4266 59.614 77.4985 59.6428C77.5704 59.5852 77.6279 59.5277 77.6998 59.4701C77.7717 59.4126 77.8292 59.355 77.9011 59.2831C77.973 59.2256 78.0306 59.168 78.1025 59.0961C78.1744 59.0242 78.2319 58.9666 78.3038 58.9091C78.3757 58.8515 78.4332 58.7796 78.5051 58.7221C78.577 58.6645 78.6345 58.5926 78.7064 58.5351C78.7783 58.4631 78.8358 58.4056 78.9077 58.3337C78.9796 58.2617 79.0371 58.2042 79.109 58.1323C79.1809 58.0603 79.2385 58.0028 79.3104 57.9309C79.3823 57.8589 79.4398 57.8014 79.5117 57.7295C79.5836 57.6575 79.6411 57.6 79.6986 57.5281C79.7561 57.4561 79.828 57.3986 79.8856 57.3267C79.9431 57.2547 80.015 57.1972 80.0725 57.1253C80.13 57.0533 80.2019 56.9958 80.2594 56.9239C80.317 56.8519 80.3745 56.7944 80.4464 56.7225C80.5039 56.6505 80.5614 56.593 80.6189 56.5211C80.5902 56.4491 80.5614 56.3628 80.5327 56.2909C80.5039 56.219 80.4751 56.1327 80.4464 56.0607C80.4176 55.9888 80.3889 55.9025 80.3601 55.8306C80.3313 55.7586 80.3026 55.6723 80.2738 55.6004C80.2451 55.5285 80.2163 55.4422 80.1875 55.3702C80.1588 55.2983 80.13 55.212 80.1013 55.1401C80.0725 55.0681 80.0437 54.9818 80.015 54.9099C79.9862 54.838 79.9575 54.7516 79.9287 54.6797C79.7561 54.2338 79.5692 53.7878 79.3966 53.3419C79.2241 52.8959 79.0515 52.45 78.8933 52.0184C78.7352 51.5868 78.5914 51.1409 78.4476 50.7093C78.3182 50.2777 78.1887 49.8605 78.0881 49.4434C77.9874 49.0262 77.9155 48.6234 77.858 48.2206C77.8005 47.8178 77.7717 47.4294 77.7717 47.0553C77.7717 46.6813 77.8005 46.3073 77.8724 45.9477C77.9299 45.588 78.0306 45.2428 78.1744 44.9119C78.3038 44.5954 78.4763 44.2933 78.692 43.9912C78.8933 43.7035 79.1378 43.4302 79.3966 43.1712C79.6555 42.9123 79.9575 42.6533 80.2594 42.4232C80.5758 42.1786 80.9065 41.9628 81.266 41.7327C81.6255 41.5169 81.9994 41.3011 82.3877 41.0997C82.7759 40.8983 83.1785 40.6969 83.5956 40.4955C84.0126 40.2941 84.4296 40.1071 84.861 39.9201C85.2924 39.7331 85.7238 39.5461 86.1552 39.359C86.2415 39.3159 86.3277 39.2871 86.414 39.244C86.5003 39.2008 86.5866 39.172 86.6729 39.1289C86.7591 39.0857 86.8454 39.0569 86.9317 39.0138C87.018 38.9706 87.1042 38.9419 87.1905 38.8987C87.2768 38.8555 87.3631 38.8268 87.4494 38.7836C87.5356 38.7405 87.6219 38.7117 87.7082 38.6685C87.7945 38.6254 87.8808 38.5966 87.967 38.5534C88.0533 38.5103 88.1396 38.4671 88.2259 38.4384C88.2259 38.4096 88.2259 38.3808 88.2259 38.3664C88.2259 38.3377 88.2259 38.3089 88.2259 38.2945C88.2259 38.2657 88.2259 38.237 88.2259 38.2226C88.2259 38.1938 88.2259 38.165 88.2259 38.1507C88.2259 38.1219 88.2259 38.0931 88.2259 38.0787C88.2259 38.0499 88.2259 38.0212 88.2259 38.0068C88.2259 37.978 88.2259 37.9493 88.2259 37.9349C88.2259 37.9061 88.2259 37.8773 88.2259 37.8629C88.2259 37.791 88.2403 37.7191 88.2403 37.6472C88.2403 37.5752 88.2403 37.5033 88.2546 37.4314C88.2546 37.3594 88.2546 37.2875 88.269 37.2012C88.269 37.1293 88.269 37.043 88.269 36.971C88.269 36.8991 88.269 36.8128 88.269 36.7409C88.269 36.6545 88.269 36.5826 88.269 36.4963C88.269 36.41 88.269 36.3381 88.269 36.2518C88.269 36.1654 88.269 36.0791 88.269 35.9928C88.269 35.9065 88.269 35.8202 88.269 35.7339C88.269 35.6476 88.269 35.5756 88.269 35.4893C88.269 35.403 88.269 35.3311 88.269 35.2448C88.269 35.1584 88.269 35.0865 88.269 35.0146C88.269 34.9427 88.269 34.8563 88.269 34.7844C88.269 34.7125 88.269 34.6406 88.2546 34.5542C88.2546 34.4823 88.2546 34.4104 88.2403 34.3385C88.2403 34.2665 88.2259 34.1946 88.2259 34.1227C88.2259 34.0939 88.2259 34.0795 88.2259 34.0508C88.2259 34.022 88.2259 33.9932 88.2259 33.9788C88.2259 33.9501 88.2259 33.9213 88.2259 33.9069C88.2259 33.8781 88.2259 33.8493 88.2259 33.835C88.2259 33.8062 88.2259 33.7774 88.2259 33.763C88.2259 33.7343 88.2259 33.7055 88.2259 33.6911C88.2259 33.6623 88.2259 33.6336 88.2259 33.6192C88.2259 33.5904 88.2259 33.5616 88.2259 33.5473C88.1396 33.5041 88.0533 33.4609 87.967 33.4322C87.8808 33.389 87.7945 33.3602 87.7082 33.3171C87.6219 33.2739 87.5356 33.2452 87.4494 33.202C87.3631 33.1588 87.2768 33.1301 87.1905 33.0869C87.1042 33.0438 87.018 33.015 86.9317 32.9718C86.8454 32.9287 86.7591 32.8999 86.6729 32.8567C86.5866 32.8136 86.5003 32.7848 86.414 32.7417C86.3277 32.6985 86.2415 32.6697 86.1552 32.6266C85.7238 32.4396 85.2924 32.2525 84.861 32.0655C84.4296 31.8785 84.0126 31.6771 83.5956 31.4901C83.1785 31.2887 82.7759 31.1017 82.3877 30.8859C81.9994 30.6845 81.6255 30.4687 81.266 30.2529C80.9065 30.0372 80.5758 29.807 80.2594 29.5624C79.9431 29.3179 79.6555 29.0733 79.3966 28.8144C79.1378 28.5554 78.8933 28.2821 78.692 27.9944C78.4907 27.7067 78.3182 27.4046 78.1744 27.0737C78.0306 26.7429 77.9299 26.3976 77.8724 26.038C77.8005 25.6783 77.7717 25.3043 77.7717 24.9303C77.7717 24.5562 77.8005 24.1534 77.858 23.765C77.9155 23.3622 77.9874 22.9594 78.0881 22.5423C78.1887 22.1251 78.3038 21.7079 78.4476 21.2763C78.5914 20.8448 78.7352 20.4132 78.8933 19.9672C79.0515 19.5357 79.2241 19.0897 79.3966 18.6438C79.5692 18.1978 79.7561 17.7518 79.9287 17.3059C79.9575 17.234 79.9862 17.1477 80.015 17.0757C80.0437 17.0038 80.0725 16.9175 80.1013 16.8456C80.13 16.7736 80.1588 16.6873 80.1875 16.6154C80.2163 16.5435 80.2451 16.4571 80.2738 16.3852C80.3026 16.3133 80.3313 16.227 80.3601 16.155C80.3889 16.0831 80.4176 15.9968 80.4464 15.9249C80.4751 15.8529 80.5039 15.7666 80.5327 15.6947C80.5614 15.6228 80.5902 15.5365 80.6189 15.4645C80.5614 15.3926 80.5039 15.3351 80.4464 15.2631C80.3889 15.1912 80.3313 15.1337 80.2594 15.0617C80.2019 14.9898 80.1444 14.9323 80.0725 14.8603C80.015 14.7884 79.9431 14.7309 79.8856 14.6589C79.828 14.587 79.7561 14.5295 79.6986 14.4575C79.6411 14.3856 79.5692 14.3281 79.5117 14.2561C79.4398 14.1842 79.3823 14.1267 79.3104 14.0547C79.2385 13.9828 79.1809 13.9253 79.109 13.8533C79.0371 13.7814 78.9796 13.7239 78.9077 13.6519C78.8358 13.58 78.7783 13.5225 78.7064 13.4506C78.692 13.3786 78.6201 13.3067 78.5482 13.2492C78.4763 13.1916 78.4188 13.1197 78.3469 13.0621C78.275 13.0046 78.2175 12.9327 78.1456 12.8751C78.0737 12.8176 78.0162 12.7457 77.9443 12.6881C77.8724 12.6306 77.8149 12.573 77.743 12.5011C77.6711 12.4436 77.6135 12.386 77.5416 12.3285C77.4697 12.3572 77.3835 12.386 77.3116 12.4148C77.2397 12.4436 77.1534 12.4723 77.0815 12.5011C77.0096 12.5299 76.9233 12.5586 76.8514 12.5874C76.7795 12.6162 76.6932 12.645 76.6213 12.6737C76.5494 12.7025 76.4632 12.7313 76.3913 12.76C76.3194 12.7888 76.2331 12.8176 76.1612 12.8464C76.1037 12.9039 76.0174 12.9327 75.9455 12.9614C75.8736 12.9902 75.7873 13.019 75.7154 13.0478C75.2696 13.2204 74.8238 13.4074 74.3781 13.58C73.9323 13.7526 73.4865 13.9253 73.0551 14.0835C72.6237 14.2418 72.1779 14.3856 71.7466 14.5295C71.3152 14.6589 70.8981 14.7884 70.4811 14.8891C70.0641 14.9898 69.6615 15.0617 69.2588 15.1193C68.8562 15.1768 68.4679 15.2056 68.0941 15.2056C67.7202 15.2056 67.3463 15.1768 66.9868 15.1049C66.6273 15.033 66.2822 14.9467 65.9515 14.8028C65.6351 14.6733 65.3331 14.5007 65.0312 14.2849C64.7436 14.0835 64.4703 13.839 64.2115 13.58C63.9527 13.3211 63.6938 13.019 63.4637 12.7169C63.2193 12.4004 63.0036 12.0695 62.7735 11.7099C62.5578 11.3503 62.3421 10.9762 62.1408 10.5878C61.9395 10.1994 61.7382 9.7966 61.5368 9.37942C61.3355 8.96224 61.1486 8.54506 60.9617 8.11349C60.7747 7.68192 60.5878 7.25035 60.4008 6.81878C60.3577 6.73247 60.3289 6.64615 60.2858 6.55984C60.2427 6.47353 60.2139 6.38721 60.1708 6.3009C60.1276 6.21459 60.0989 6.12827 60.0557 6.04196C60.0126 5.95564 59.9838 5.86933 59.9407 5.78302C59.8975 5.6967 59.8688 5.61039 59.8256 5.52408C59.7825 5.43776 59.7537 5.35145 59.7106 5.26513C59.6675 5.17882 59.6387 5.09251 59.5956 5.00619C59.5524 4.91988 59.5093 4.83357 59.4805 4.74725C59.4518 4.74725 59.423 4.74725 59.4086 4.74725C59.3799 4.74725 59.3511 4.74725 59.3367 4.74725C59.308 4.74725 59.2792 4.74725 59.2648 4.74725C59.2361 4.74725 59.2073 4.74725 59.1929 4.74725C59.1642 4.74725 59.1354 4.74725 59.121 4.74725C59.1067 4.74725 59.0635 4.74725 59.0491 4.74725C59.0204 4.74725 58.9916 4.74725 58.9772 4.74725C58.9197 4.7041 58.891 4.7041 58.8622 4.7041Z" fill="url(#paint0_radial_3287:2172)"/>
<path d="M57 18C57.6167 18 58.2335 18.0287 58.8359 18.0861C59.4382 18.1434 60.0406 18.2438 60.6287 18.3586C61.2167 18.4733 61.7904 18.6311 62.3498 18.8032C62.9092 18.9753 63.4685 19.1761 63.9992 19.4056C64.5442 19.6351 65.0606 19.8932 65.5769 20.1657C66.0932 20.4382 66.5809 20.7394 67.0685 21.0693C67.5418 21.3992 68.0151 21.7434 68.4598 22.102C68.9044 22.4749 69.3347 22.8622 69.7363 23.2637C70.1378 23.6653 70.5251 24.0956 70.898 24.5402C71.2709 24.9849 71.6151 25.4438 71.9307 25.9315C72.2606 26.4048 72.5618 26.9068 72.8343 27.4231C73.1068 27.9394 73.3649 28.4558 73.5944 29.0008C73.8239 29.5458 74.0247 30.0908 74.1968 30.6502C74.3689 31.2096 74.5267 31.7976 74.6414 32.3713C74.7562 32.9594 74.8566 33.5474 74.9139 34.1641C74.9713 34.7665 75 35.3833 75 36C75 36.6167 74.9713 37.2335 74.9139 37.8359C74.8566 38.4382 74.7562 39.0406 74.6414 39.6287C74.5267 40.2167 74.3689 40.7904 74.1968 41.3498C74.0247 41.9092 73.8239 42.4685 73.5944 42.9992C73.3649 43.5442 73.1068 44.0606 72.8343 44.5769C72.5618 45.0932 72.2606 45.5809 71.9307 46.0685C71.6008 46.5418 71.2566 47.0151 70.898 47.4598C70.5251 47.9044 70.1378 48.3347 69.7363 48.7363C69.3347 49.1378 68.9044 49.5251 68.4598 49.898C68.0151 50.2709 67.5562 50.6151 67.0685 50.9307C66.5952 51.2606 66.0932 51.5618 65.5769 51.8343C65.0606 52.1068 64.5442 52.3649 63.9992 52.5944C63.4542 52.8239 62.9092 53.0247 62.3498 53.1968C61.7904 53.3689 61.2167 53.5267 60.6287 53.6414C60.0406 53.7562 59.4382 53.8566 58.8359 53.9139C58.2335 53.9713 57.6167 54 57 54C56.3833 54 55.7665 53.9713 55.1641 53.9139C54.5618 53.8566 53.9594 53.7562 53.3713 53.6414C52.7833 53.5267 52.2096 53.3689 51.6502 53.1968C51.0908 53.0247 50.5315 52.8239 50.0008 52.5944C49.4558 52.3649 48.9394 52.1068 48.4231 51.8343C47.9068 51.5618 47.4191 51.2606 46.9315 50.9307C46.4582 50.6008 45.9849 50.2566 45.5402 49.898C45.0956 49.5251 44.6653 49.1378 44.2637 48.7363C43.8622 48.3347 43.4749 47.9044 43.102 47.4598C42.7291 47.0151 42.3849 46.5562 42.0693 46.0685C41.7394 45.5952 41.4382 45.0932 41.1657 44.5769C40.8932 44.0606 40.6351 43.5442 40.4056 42.9992C40.1761 42.4542 39.9753 41.9092 39.8032 41.3498C39.6311 40.7904 39.4733 40.2024 39.3586 39.6287C39.2438 39.0406 39.1434 38.4526 39.0861 37.8359C39.0287 37.2335 39 36.6167 39 36C39 35.3833 39.0287 34.7665 39.0861 34.1641C39.1434 33.5618 39.2438 32.9594 39.3586 32.3713C39.4733 31.7833 39.6311 31.2096 39.8032 30.6502C39.9753 30.0908 40.1761 29.5315 40.4056 29.0008C40.6351 28.4558 40.8932 27.9394 41.1657 27.4231C41.4382 26.9068 41.7394 26.4191 42.0693 25.9315C42.3992 25.4582 42.7434 24.9849 43.102 24.5402C43.4749 24.0956 43.8622 23.6653 44.2637 23.2637C44.6653 22.8622 45.0956 22.4749 45.5402 22.102C45.9849 21.7291 46.4438 21.3849 46.9315 21.0693C47.4048 20.7394 47.9068 20.4382 48.4231 20.1657C48.9394 19.8932 49.4558 19.6351 50.0008 19.4056C50.5458 19.1761 51.0908 18.9753 51.6502 18.8032C52.2096 18.6311 52.7833 18.4733 53.3713 18.3586C53.9594 18.2438 54.5474 18.1434 55.1641 18.0861C55.7665 18.0287 56.3833 18 57 18ZM66.4661 26.5482C66.1649 26.247 65.8494 25.9602 65.5195 25.6876C65.1896 25.4151 64.8454 25.157 64.4869 24.9131C64.1283 24.6693 63.7554 24.4542 63.3825 24.239C63.0096 24.0382 62.608 23.8518 62.2064 23.6797C61.8048 23.5076 61.3888 23.3641 60.9729 23.2351C60.557 23.106 60.1267 22.9912 59.6964 22.9052C59.2661 22.8191 58.8215 22.7474 58.3626 22.7044C57.9179 22.6614 57.459 22.6327 57 22.6327C56.541 22.6327 56.0821 22.6614 55.6374 22.7044C55.1928 22.7474 54.7482 22.8191 54.3036 22.9052C53.8733 22.9912 53.443 23.106 53.0271 23.2351C52.6112 23.3641 52.1952 23.5219 51.7936 23.6797C51.392 23.8518 51.0048 24.0382 50.6175 24.239C50.2446 24.4398 49.8717 24.6693 49.5131 24.9131C49.1546 25.157 48.8104 25.4151 48.4805 25.6876C48.1506 25.9602 47.8351 26.247 47.5339 26.5482C47.2327 26.8494 46.9458 27.1649 46.6733 27.4948C46.4008 27.8247 46.1426 28.1689 45.8988 28.5275C45.655 28.8861 45.4398 29.259 45.2247 29.6319C45.0239 30.0048 44.8231 30.4064 44.6653 30.808C44.4932 31.2096 44.3498 31.6255 44.2207 32.0414C44.0916 32.4574 43.9769 32.8876 43.8908 33.3179C43.8048 33.7482 43.7331 34.1928 43.69 34.6518C43.647 35.0964 43.6183 35.5554 43.6183 36.0143C43.6183 36.4733 43.647 36.9323 43.69 37.3769C43.7331 37.8215 43.8048 38.2661 43.8908 38.7108C43.9769 39.141 44.0916 39.5713 44.2207 39.9873C44.3498 40.4032 44.5076 40.8191 44.6653 41.2207C44.8375 41.6223 45.0239 42.0096 45.2247 42.3968C45.4255 42.7697 45.655 43.1426 45.8988 43.5012C46.1426 43.8598 46.4008 44.204 46.6733 44.5339C46.9458 44.8637 47.2327 45.1793 47.5339 45.4805C47.8351 45.7817 48.1506 46.0685 48.4805 46.341C48.8104 46.6135 49.1546 46.8717 49.5131 47.1155C49.8717 47.3594 50.2446 47.5745 50.6175 47.7896C50.9904 47.9904 51.392 48.1769 51.7936 48.349C52.1952 48.5211 52.6112 48.6645 53.0271 48.7936C53.443 48.9227 53.8733 49.0375 54.3036 49.1235C54.7339 49.2096 55.1785 49.2813 55.6374 49.3243C56.0821 49.3673 56.541 49.396 57 49.396C57.459 49.396 57.9179 49.3673 58.3626 49.3243C58.8072 49.2813 59.2518 49.2096 59.6964 49.1235C60.1267 49.0375 60.557 48.9227 60.9729 48.7936C61.3888 48.6645 61.8048 48.5068 62.2064 48.349C62.608 48.1769 62.9952 47.9904 63.3825 47.7896C63.7554 47.5888 64.1283 47.3594 64.4869 47.1155C64.8454 46.8717 65.1896 46.6135 65.5195 46.341C65.8494 46.0685 66.1649 45.7817 66.4661 45.4805C66.7673 45.1793 67.0542 44.8637 67.3267 44.5339C67.5992 44.204 67.8574 43.8598 68.1012 43.5012C68.345 43.1426 68.5602 42.7697 68.7753 42.3968C68.9761 42.0239 69.1625 41.6223 69.3347 41.2207C69.5068 40.8191 69.6502 40.4032 69.7793 39.9873C69.9084 39.5713 70.0231 39.141 70.1092 38.7108C70.1952 38.2805 70.2669 37.8359 70.31 37.3769C70.353 36.9323 70.3817 36.4733 70.3817 36.0143C70.3817 35.5554 70.353 35.0964 70.31 34.6518C70.2669 34.2072 70.1952 33.7625 70.1092 33.3179C70.0231 32.8876 69.9084 32.4574 69.7793 32.0414C69.6502 31.6255 69.4924 31.2096 69.3347 30.808C69.1625 30.4064 68.9761 30.0191 68.7753 29.6319C68.5745 29.259 68.345 28.8861 68.1012 28.5275C67.8574 28.1689 67.5992 27.8247 67.3267 27.4948C67.0685 27.1649 66.7673 26.8494 66.4661 26.5482Z" fill="url(#paint1_radial_3287:2172)"/>
<path d="M57 27C57.3119 27 57.6238 27.0148 57.9208 27.0446C58.2178 27.0743 58.5149 27.1188 58.8119 27.1782C59.1089 27.2376 59.3911 27.3119 59.6733 27.401C59.9554 27.4901 60.2376 27.5941 60.505 27.698C60.7723 27.8168 61.0396 27.9356 61.2921 28.0842C61.5446 28.2327 61.797 28.3663 62.0347 28.5297C62.2723 28.6931 62.5099 28.8713 62.7327 29.0495C62.9554 29.2277 63.1634 29.4208 63.3713 29.6287C63.5792 29.8366 63.7723 30.0446 63.9505 30.2673C64.1287 30.4901 64.3069 30.7277 64.4703 30.9653C64.6337 31.203 64.7822 31.4554 64.9158 31.7079C65.0495 31.9604 65.1832 32.2277 65.302 32.495C65.4208 32.7624 65.5248 33.0446 65.599 33.3267C65.6881 33.6089 65.7624 33.8911 65.8218 34.1881C65.8812 34.4851 65.9257 34.7822 65.9554 35.0792C65.9851 35.3762 66 35.6881 66 36C66 36.3119 65.9851 36.6238 65.9554 36.9208C65.9257 37.2178 65.8812 37.5297 65.8218 37.8119C65.7624 38.1089 65.6881 38.3911 65.599 38.6733C65.5099 38.9554 65.4059 39.2376 65.302 39.505C65.1832 39.7723 65.0644 40.0396 64.9158 40.2921C64.7822 40.5446 64.6337 40.797 64.4703 41.0347C64.3069 41.2723 64.1287 41.5099 63.9505 41.7327C63.7723 41.9554 63.5792 42.1634 63.3713 42.3713C63.1634 42.5792 62.9554 42.7723 62.7327 42.9505C62.5099 43.1287 62.2723 43.3069 62.0347 43.4703C61.797 43.6337 61.5446 43.7822 61.2921 43.9158C61.0396 44.0495 60.7723 44.1832 60.505 44.302C60.2376 44.4208 59.9554 44.5248 59.6733 44.599C59.3911 44.6881 59.1089 44.7624 58.8119 44.8218C58.5149 44.8812 58.2178 44.9257 57.9208 44.9554C57.6238 44.9852 57.3119 45 57 45C56.6881 45 56.3762 44.9852 56.0792 44.9554C55.7822 44.9257 55.4851 44.8812 55.1881 44.8218C54.8911 44.7624 54.6089 44.6881 54.3267 44.599C54.0446 44.5099 53.7624 44.4059 53.495 44.302C53.2277 44.1832 52.9604 44.0644 52.7079 43.9158C52.4554 43.7822 52.203 43.6337 51.9653 43.4703C51.7277 43.3069 51.4901 43.1287 51.2673 42.9505C51.0446 42.7723 50.8366 42.5792 50.6287 42.3713C50.4208 42.1634 50.2277 41.9554 50.0495 41.7327C49.8713 41.5099 49.6931 41.2723 49.5297 41.0347C49.3663 40.797 49.2178 40.5446 49.0842 40.2921C48.9505 40.0396 48.8168 39.7723 48.698 39.505C48.5792 39.2376 48.4752 38.9554 48.401 38.6733C48.3119 38.3911 48.2376 38.1089 48.1782 37.8119C48.1188 37.5149 48.0743 37.2178 48.0446 36.9208C48.0149 36.6238 48 36.3119 48 36C48 35.6881 48.0149 35.3762 48.0446 35.0792C48.0743 34.7822 48.1188 34.4703 48.1782 34.1881C48.2376 33.8911 48.3119 33.6089 48.401 33.3267C48.4901 33.0446 48.5941 32.7624 48.698 32.495C48.8168 32.2277 48.9356 31.9604 49.0842 31.7079C49.2178 31.4554 49.3663 31.203 49.5297 30.9653C49.6931 30.7277 49.8713 30.4901 50.0495 30.2673C50.2277 30.0446 50.4208 29.8366 50.6287 29.6287C50.8366 29.4208 51.0446 29.2277 51.2673 29.0495C51.4901 28.8713 51.7277 28.6931 51.9653 28.5297C52.203 28.3663 52.4554 28.2178 52.7079 28.0842C52.9604 27.9505 53.2277 27.8168 53.495 27.698C53.7624 27.5792 54.0446 27.4752 54.3267 27.401C54.6089 27.3119 54.8911 27.2376 55.1881 27.1782C55.4851 27.1188 55.7822 27.0743 56.0792 27.0446C56.3911 27.0148 56.6881 27 57 27ZM59.9851 33.0297C59.896 32.9406 59.7921 32.8366 59.6881 32.7624C59.5842 32.6733 59.4802 32.599 59.3614 32.5248C59.2426 32.4505 59.1386 32.3762 59.0198 32.3168C58.901 32.2574 58.7822 32.198 58.6485 32.1386C58.5149 32.0792 58.396 32.0347 58.2624 31.9901C58.1287 31.9455 57.995 31.9158 57.8614 31.8861C57.7277 31.8564 57.5792 31.8416 57.4455 31.8267C57.297 31.8119 57.1634 31.8119 57.0148 31.8119C56.8663 31.8119 56.7178 31.8119 56.5842 31.8267C56.4356 31.8416 56.302 31.8564 56.1683 31.8861C56.0347 31.9158 55.901 31.9455 55.7673 31.9901C55.6337 32.0347 55.5 32.0792 55.3812 32.1386C55.2624 32.198 55.1287 32.2574 55.0099 32.3168C54.8911 32.3762 54.7723 32.4505 54.6683 32.5248C54.5644 32.599 54.4455 32.6881 54.3416 32.7624C54.2376 32.8515 54.1337 32.9406 54.0446 33.0297C53.9554 33.1188 53.8515 33.2228 53.7772 33.3267C53.703 33.4307 53.6139 33.5347 53.5396 33.6535C53.4653 33.7723 53.3911 33.8762 53.3317 33.995C53.2723 34.1139 53.2129 34.2327 53.1535 34.3663C53.0941 34.5 53.0495 34.6188 53.005 34.7525C52.9604 34.8861 52.9307 35.0198 52.901 35.1535C52.8713 35.2871 52.8564 35.4356 52.8416 35.5693C52.8267 35.7178 52.8267 35.8515 52.8267 36C52.8267 36.1485 52.8416 36.297 52.8416 36.4307C52.8564 36.5792 52.8713 36.7129 52.901 36.8465C52.9307 36.9802 52.9604 37.1139 53.005 37.2475C53.0495 37.3812 53.0941 37.5149 53.1535 37.6337C53.2129 37.7673 53.2723 37.8861 53.3317 38.005C53.3911 38.1238 53.4653 38.2426 53.5396 38.3465C53.6139 38.4653 53.703 38.5693 53.7772 38.6733C53.8515 38.7772 53.9554 38.8812 54.0446 38.9703C54.1337 39.0594 54.2376 39.1634 54.3416 39.2376C54.4455 39.3267 54.5495 39.401 54.6683 39.4752C54.7871 39.5495 54.8911 39.6238 55.0099 39.6832C55.1287 39.7426 55.2475 39.802 55.3812 39.8614C55.5149 39.9208 55.6337 39.9653 55.7673 40.0099C55.901 40.0545 56.0347 40.0842 56.1683 40.1139C56.302 40.1436 56.4505 40.1584 56.5842 40.1733C56.7327 40.1881 56.8663 40.1881 57.0148 40.1881C57.1634 40.1881 57.3119 40.1881 57.4455 40.1733C57.5941 40.1584 57.7277 40.1436 57.8614 40.1139C57.995 40.0842 58.1287 40.0545 58.2624 40.0099C58.396 39.9653 58.5297 39.9208 58.6485 39.8614C58.7822 39.802 58.901 39.7426 59.0198 39.6832C59.1386 39.6238 59.2574 39.5495 59.3614 39.4752C59.4802 39.401 59.5842 39.3119 59.6881 39.2376C59.7921 39.1485 59.896 39.0594 59.9851 38.9703C60.0743 38.8812 60.1782 38.7772 60.2525 38.6733C60.3416 38.5693 60.4158 38.4653 60.4901 38.3465C60.5644 38.2277 60.6386 38.1238 60.698 38.005C60.7574 37.8861 60.8168 37.7673 60.8762 37.6337C60.9356 37.5 60.9802 37.3812 61.0248 37.2475C61.0693 37.1139 61.099 36.9802 61.1287 36.8465C61.1584 36.7129 61.1733 36.5644 61.1881 36.4307C61.203 36.2822 61.203 36.1485 61.203 36C61.203 35.8515 61.1881 35.703 61.1881 35.5693C61.1733 35.4208 61.1584 35.2871 61.1287 35.1535C61.099 35.0198 61.0693 34.8861 61.0248 34.7525C60.9802 34.6188 60.9356 34.4851 60.8762 34.3663C60.8168 34.2475 60.7574 34.1139 60.698 33.995C60.6386 33.8762 60.5644 33.7574 60.4901 33.6535C60.4158 33.5347 60.3267 33.4307 60.2525 33.3267C60.1782 33.2228 60.0891 33.1188 59.9851 33.0297Z" fill="url(#paint2_radial_3287:2172)"/>
<path d="M111.966 31.8611C111.937 31.7168 111.894 31.5581 111.836 31.4283C111.779 31.2984 111.707 31.1542 111.621 31.0387C111.535 30.9089 111.449 30.7935 111.334 30.6925C111.233 30.5915 111.119 30.4905 110.989 30.404C110.86 30.3174 110.731 30.2453 110.602 30.1875C110.458 30.1298 110.314 30.0866 110.171 30.0577C110.027 30.0289 109.869 30.0144 109.697 30.0144H99.5601C98.2822 30.0144 97.2485 31.0532 97.2485 32.3372C97.2485 33.6212 98.2822 34.6599 99.5601 34.6599H107.371V42.4505V50.241V58.0172V65.8078V73.5983V81.3889V82.0814H94.8219H81.8851H68.9483H55.9972H43.0604H30.1236H17.1868H4.63772V81.3889V73.5983V65.8078V58.0172V50.2266V42.4361V34.6455H13.8844C15.1623 34.6455 16.1961 33.6067 16.1961 32.3227C16.1961 31.0387 15.1623 30 13.8844 30H2.31168C2.15374 30 1.9958 30.0144 1.83786 30.0433C1.67992 30.0721 1.53633 30.1154 1.40711 30.1731C1.26353 30.2308 1.1343 30.303 1.01944 30.3895C0.890212 30.4761 0.775346 30.5627 0.674838 30.6781C0.57433 30.7935 0.473822 30.8945 0.387673 31.0243C0.301523 31.1542 0.229732 31.284 0.172299 31.4138C0.114866 31.5581 0.0717913 31.7024 0.0430748 31.8467C0.0143583 32.0054 0 32.164 0 32.3227V40.6904V49.058V57.4257V65.7933V74.161V82.5286V90.8963V99.2639C0 99.4226 0.0143583 99.5813 0.0430748 99.74C0.0717913 99.8987 0.114866 100.043 0.172299 100.173C0.229732 100.317 0.301523 100.447 0.387673 100.562C0.473822 100.692 0.559972 100.808 0.674838 100.909C0.775346 101.01 0.890212 101.111 1.01944 101.197C1.14866 101.284 1.27788 101.356 1.40711 101.414C1.55069 101.471 1.69427 101.515 1.83786 101.543C1.98144 101.572 2.13938 101.587 2.31168 101.587H15.7366H29.1616H42.5866H53.6855V103.202V105.179V107.155V109.132V111.108V113.085V114.355H51.8333H47.6694H43.5055H39.3416C39.1837 114.355 39.0257 114.369 38.8821 114.398C38.7242 114.427 38.5806 114.47 38.4514 114.528C38.3078 114.585 38.1786 114.657 38.0637 114.744C37.9345 114.831 37.8196 114.917 37.7191 115.033C37.6186 115.148 37.5181 115.249 37.432 115.379C37.3458 115.509 37.274 115.639 37.2166 115.768C37.1592 115.898 37.1161 116.057 37.0874 116.201C37.0586 116.345 37.0443 116.504 37.0443 116.677C37.0443 116.836 37.0586 116.995 37.0874 117.153C37.1161 117.298 37.1592 117.456 37.2166 117.586C37.274 117.73 37.3458 117.86 37.432 117.976C37.5181 118.106 37.6043 118.221 37.7191 118.322C37.834 118.423 37.9345 118.524 38.0637 118.61C38.193 118.697 38.3222 118.769 38.4514 118.827C38.595 118.885 38.7386 118.928 38.8821 118.957C39.0257 118.986 39.1837 119 39.3416 119H43.5055H47.6694H51.8333H55.9972H60.1611H64.325H68.4889H72.6528C72.8107 119 72.9686 118.986 73.1266 118.957C73.2702 118.928 73.4281 118.885 73.5573 118.827C73.7009 118.769 73.8301 118.697 73.945 118.61C74.0742 118.524 74.1891 118.437 74.2896 118.322C74.3901 118.207 74.4906 118.106 74.5768 117.976C74.6629 117.846 74.7347 117.716 74.7921 117.586C74.8496 117.442 74.8926 117.298 74.9214 117.153C74.9501 116.995 74.9644 116.85 74.9644 116.677C74.9644 116.519 74.9501 116.36 74.9214 116.201C74.8926 116.042 74.8496 115.898 74.7921 115.768C74.7347 115.639 74.6629 115.494 74.5768 115.379C74.4906 115.249 74.4045 115.134 74.2896 115.033C74.1747 114.932 74.0742 114.831 73.945 114.744C73.8158 114.657 73.6865 114.585 73.5573 114.528C73.4137 114.47 73.2702 114.427 73.1266 114.398C72.9686 114.369 72.8251 114.355 72.6528 114.355H68.4889H64.325H60.1611H58.3089V113.085V111.108V109.132V107.155V105.193V103.217V101.601H69.4078H82.8328H96.2577H109.683C109.841 101.601 109.999 101.587 110.157 101.558C110.314 101.529 110.458 101.486 110.587 101.428C110.731 101.37 110.86 101.298 110.975 101.212C111.104 101.125 111.219 101.038 111.32 100.923C111.42 100.822 111.521 100.707 111.607 100.577C111.693 100.447 111.765 100.317 111.822 100.187C111.88 100.057 111.923 99.8987 111.951 99.7544C111.98 99.6102 111.994 99.4515 111.994 99.2783V90.9107V82.543V74.1754V65.8078V57.4401V49.0725V40.7048V32.3372C112.009 32.164 111.994 32.0054 111.966 31.8611ZM107.371 89.1506V96.9412H94.5347H81.6985H68.8622H55.9972H43.1609H30.3246H17.4884H4.63772V89.1506V86.7269H17.1868H30.1236H43.0604H55.9972H68.934H81.8708H94.8075H107.357V89.1506H107.371Z" fill="url(#paint3_radial_3287:2172)"/>
<defs>
<radialGradient id="paint0_radial_3287:2172" cx="0" cy="0" r="1" gradientUnits="userSpaceOnUse" gradientTransform="translate(67.08 72) rotate(-80.3482) scale(107.36 580.46)">
<stop stop-color="#00D9F7"/>
<stop offset="1" stop-color="#23FFFF"/>
</radialGradient>
<radialGradient id="paint1_radial_3287:2172" cx="0" cy="0" r="1" gradientUnits="userSpaceOnUse" gradientTransform="translate(62.04 54) rotate(-80.3482) scale(53.6798 290.23)">
<stop stop-color="#00D9F7"/>
<stop offset="1" stop-color="#23FFFF"/>
</radialGradient>
<radialGradient id="paint2_radial_3287:2172" cx="0" cy="0" r="1" gradientUnits="userSpaceOnUse" gradientTransform="translate(59.52 45) rotate(-80.3482) scale(26.8399 145.115)">
<stop stop-color="#00D9F7"/>
<stop offset="1" stop-color="#23FFFF"/>
</radialGradient>
<radialGradient id="paint3_radial_3287:2172" cx="0" cy="0" r="1" gradientUnits="userSpaceOnUse" gradientTransform="translate(71.68 119) rotate(-77.9199) scale(133.793 895.621)">
<stop stop-color="#00D9F7"/>
<stop offset="1" stop-color="#23FFFF"/>
</radialGradient>
</defs>
</svg>
