<svg width="92" height="113" viewBox="0 0 92 113" fill="none" xmlns="http://www.w3.org/2000/svg">
<path d="M19.6567 9.21875H25.8766H32.0965H38.3164H44.5364H50.7563H56.9762H63.1961H69.416C69.5026 9.21875 69.5892 9.21875 69.6758 9.23304C69.7624 9.24734 69.849 9.26163 69.9211 9.27592C70.0077 9.29021 70.0799 9.3188 70.1665 9.34739C70.2386 9.37597 70.3252 9.40456 70.3974 9.43314C70.4695 9.46173 70.5417 9.50461 70.6139 9.54749C70.686 9.59037 70.7582 9.63325 70.8159 9.67612C70.8881 9.719 70.9458 9.77618 71.0035 9.83335C71.0612 9.89052 71.1189 9.94769 71.1767 10.0049L73.6877 12.449L76.1988 14.893L78.7099 17.3371L81.2209 19.7812L83.732 22.2253L86.243 24.6694L88.7541 27.1135L91.2652 29.5576C91.3229 29.6148 91.3806 29.6719 91.4239 29.7291C91.4816 29.7863 91.5249 29.8578 91.5682 29.9149C91.6115 29.9864 91.6548 30.0436 91.6837 30.115C91.727 30.1865 91.7558 30.258 91.7847 30.3151C91.8135 30.3723 91.8424 30.4581 91.8568 30.5295C91.8857 30.601 91.9001 30.6725 91.9146 30.7439C91.929 30.8154 91.9434 30.8869 91.9434 30.9726C91.9434 31.0584 91.9579 31.1155 91.9579 31.2013V41.1349V51.0685V61.0021V70.9357V80.8693V90.8029V100.736V110.67C91.9579 110.827 91.9434 110.985 91.9146 111.142C91.8857 111.299 91.8424 111.442 91.7847 111.571C91.727 111.713 91.6548 111.842 91.5682 111.956C91.4816 112.085 91.395 112.199 91.2796 112.299C91.1786 112.4 91.0631 112.5 90.9332 112.585C90.8033 112.671 90.6735 112.743 90.5436 112.8C90.3993 112.857 90.255 112.9 90.1106 112.928C89.9663 112.957 89.8076 112.971 89.6344 112.971H80.889H72.1436H63.3982H54.6528H45.9073H37.1619H28.4165H19.6711C19.5124 112.971 19.3536 112.957 19.1949 112.928C19.0361 112.9 18.8918 112.857 18.7619 112.8C18.6176 112.743 18.4877 112.671 18.3723 112.585C18.2424 112.5 18.1269 112.414 18.0259 112.299C17.9249 112.185 17.8239 112.085 17.7373 111.956C17.6507 111.828 17.5786 111.699 17.5208 111.571C17.4631 111.428 17.4198 111.285 17.3909 111.142C17.3621 110.999 17.3477 110.842 17.3477 110.67V98.2781V85.9004V73.5084V61.1164V48.7244V36.3325V23.9405V11.5342C17.3477 11.377 17.3621 11.2198 17.3909 11.0625C17.4198 10.9053 17.4631 10.7624 17.5208 10.6338C17.5786 10.4908 17.6507 10.3622 17.7373 10.2478C17.8239 10.1192 17.9105 10.0049 18.0259 9.90481C18.1414 9.80476 18.2424 9.70471 18.3723 9.61895C18.4877 9.5332 18.6176 9.46173 18.7619 9.40456C18.9062 9.34739 19.0506 9.30451 19.1949 9.27592C19.3392 9.24734 19.4979 9.21875 19.6567 9.21875ZM68.478 13.8354H62.6622H56.8463H51.0305H45.2146H39.3988H33.583H27.7671H21.9513V25.6556V37.4759V49.2962V61.1164V72.9367V84.757V96.5772V108.397H30.1194H38.2876H46.4557H54.6239H62.792H70.9602H79.1284H87.2965V98.8784V89.3593V79.8402V70.3211V60.802V51.2829V41.7638V32.2447L84.9442 29.9435L82.5919 27.6424L80.2396 25.3412L77.8873 23.04L75.535 20.7389L73.1826 18.4377L70.8303 16.1365L68.478 13.8354Z" fill="url(#paint0_radial_3287:2194)"/>
<path d="M89.6618 33.5451H89.6474H89.633H89.6185H89.6041H89.5897H87.1075H84.6253H82.1431H79.6609H77.2075H74.7253H72.2431H69.761C69.6022 33.5451 69.4435 33.5308 69.2847 33.5022C69.126 33.4736 68.9817 33.4307 68.8518 33.3736C68.7075 33.3164 68.5776 33.2449 68.4621 33.1592C68.3322 33.0734 68.2168 32.9877 68.1158 32.8733C68.0148 32.7733 67.9137 32.6589 67.8271 32.5303C67.7406 32.4016 67.6684 32.273 67.6107 32.1444C67.5529 32.0014 67.5097 31.8585 67.4808 31.7156C67.4519 31.5584 67.4375 31.4154 67.4375 31.2439V28.7855V26.3271V23.8688V21.4104V18.952V16.4936V14.0066V11.5482C67.4375 11.391 67.4519 11.2338 67.4808 11.0766C67.5097 10.9193 67.5529 10.7764 67.6107 10.6478C67.6684 10.5048 67.7406 10.3762 67.8271 10.2619C67.9137 10.1332 68.0003 10.0189 68.1158 9.91884C68.2168 9.81879 68.3322 9.71874 68.4621 9.63298C68.592 9.54722 68.7219 9.47576 68.8518 9.41859C68.9961 9.36141 69.1404 9.31854 69.2847 9.28995C69.429 9.26136 69.5878 9.24707 69.761 9.24707C69.8475 9.24707 69.9197 9.24707 70.0063 9.26136C70.0784 9.27566 70.165 9.27566 70.2372 9.30424C70.3093 9.31854 70.3959 9.33283 70.4681 9.36141C70.5402 9.39 70.6124 9.40429 70.6846 9.44717C70.7567 9.47576 70.8289 9.50434 70.8866 9.54722C70.9588 9.5901 71.0165 9.61869 71.0742 9.66157C71.1319 9.70445 71.1897 9.74732 71.2474 9.7902C71.3051 9.83308 71.3628 9.89025 71.4061 9.94742L73.8883 12.4058L76.3705 14.8642L78.8527 17.3226L81.3349 19.781L83.8171 22.2394L86.2993 24.6977L88.7815 27.1561L91.2637 29.6145C91.3792 29.7289 91.4802 29.8432 91.5668 29.9718C91.6533 30.1005 91.7255 30.2291 91.7832 30.372C91.841 30.515 91.8842 30.6579 91.9131 30.8008C91.942 30.9438 91.9564 31.0867 91.9564 31.2439C91.9564 31.3868 91.942 31.5441 91.9131 31.687C91.8842 31.8299 91.841 31.9729 91.7832 32.1158C91.7255 32.2587 91.6533 32.3873 91.5668 32.516C91.4802 32.6446 91.3792 32.759 91.2637 32.8733C91.206 32.9305 91.1482 32.9877 91.0905 33.0305C91.0328 33.0734 90.9606 33.1306 90.9029 33.1735C90.8452 33.2163 90.773 33.2592 90.7009 33.2878C90.6287 33.3164 90.571 33.3593 90.4988 33.3879C90.4267 33.4164 90.3545 33.445 90.2824 33.4593C90.2102 33.4736 90.1381 33.5022 90.0659 33.5165C89.9937 33.5308 89.9216 33.5451 89.8494 33.5451C89.7773 33.5451 89.7484 33.5451 89.6618 33.5451ZM72.0988 28.9285H73.5997H75.0861H76.5726H78.059H79.5454H81.0319H82.5183H84.0047L82.5183 27.4563L81.0319 25.9841L79.5454 24.5119L78.0734 23.0112L76.587 21.539L75.1006 20.0668L73.5997 18.5804L72.1133 17.1082V18.5804V20.0525V21.5247V22.9969V24.4691V25.9412V27.4134V28.9285H72.0988Z" fill="url(#paint1_radial_3287:2194)"/>
<path d="M19.5401 103.781C19.6988 103.781 19.8576 103.767 20.0163 103.738C20.1751 103.71 20.3194 103.667 20.4493 103.61C20.5936 103.552 20.7235 103.481 20.8389 103.395C20.9688 103.309 21.0842 103.224 21.1853 103.109C21.2863 103.009 21.3873 102.895 21.4739 102.766C21.5605 102.638 21.6326 102.509 21.6904 102.38C21.7481 102.237 21.7914 102.094 21.8202 101.952C21.8491 101.794 21.8635 101.651 21.8635 101.48C21.8635 101.323 21.8491 101.165 21.8202 101.008C21.7914 100.851 21.7481 100.708 21.6904 100.579C21.6326 100.437 21.5605 100.308 21.4739 100.194C21.3873 100.065 21.3007 99.9506 21.1853 99.8505C21.0698 99.7505 20.9688 99.6504 20.8389 99.5647C20.709 99.4789 20.5791 99.4074 20.4493 99.3503C20.3049 99.2931 20.1606 99.2502 20.0163 99.2216C19.8576 99.193 19.7133 99.1787 19.5401 99.1787H17.6784H15.8168H13.9551H12.0935H10.2318H8.3702H6.52298H4.66133V87.3585V75.5382V63.7179V51.8834V40.0631V28.2429V16.4369V4.61662H10.4772H16.293H22.1089H27.9247H33.7405H39.5564H45.3722H51.1881L52.1694 5.57425L53.1507 6.53188L54.1321 7.4895L55.1134 8.44713L56.0947 9.40476L57.0761 10.3624L58.0141 11.2914L58.9955 12.2491C59.1109 12.3634 59.2264 12.4634 59.3562 12.5349C59.4861 12.6207 59.616 12.6921 59.7603 12.7493C59.9046 12.8065 60.0489 12.8494 60.1933 12.8779C60.3376 12.9065 60.4819 12.9208 60.6406 12.9208C60.7849 12.9208 60.9437 12.9065 61.088 12.8779C61.2323 12.8494 61.3766 12.8065 61.5209 12.7493C61.6653 12.6921 61.7951 12.6207 61.925 12.5349C62.0549 12.4492 62.1704 12.3491 62.2858 12.2348C62.4013 12.1204 62.5023 12.0061 62.5744 11.8774C62.661 11.7488 62.7332 11.6202 62.7765 11.4772C62.8342 11.3343 62.8775 11.1914 62.9064 11.0484C62.9352 10.9055 62.9496 10.7626 62.9496 10.6054C62.9496 10.4624 62.9352 10.3052 62.9064 10.1623C62.8775 10.0194 62.8342 9.87642 62.7765 9.73349C62.7187 9.59056 62.6466 9.46193 62.56 9.33329C62.4734 9.20466 62.3724 9.09031 62.2569 8.97597L61.189 7.94688L60.1355 6.91778L59.082 5.88869L58.0285 4.8596L56.9895 3.85909L55.936 2.83L54.8825 1.80091L53.829 0.786112C53.7713 0.72894 53.7136 0.671768 53.6558 0.614597C53.5981 0.557425 53.5404 0.514546 53.4682 0.457374C53.4105 0.414495 53.3384 0.357324 53.2662 0.328738C53.194 0.285859 53.1219 0.24298 53.0497 0.214394C52.9776 0.185808 52.9054 0.142929 52.8188 0.128636C52.7467 0.100051 52.6601 0.0857577 52.5735 0.0571718C52.4869 0.0428788 52.4147 0.0285859 52.3282 0.0142929C52.256 0 52.1694 0 52.0828 0H45.8629H39.643H33.4231H27.2031H20.9832H14.7633H8.54337H2.32345C2.16471 0 2.00596 0.0142929 1.86165 0.0428788C1.71733 0.0714647 1.55859 0.114344 1.42871 0.171515C1.29882 0.228687 1.15451 0.314445 1.02463 0.400202C0.909176 0.471667 0.793725 0.571718 0.678275 0.671768C0.562824 0.771819 0.476235 0.886162 0.389647 1.0148C0.31749 1.14344 0.245333 1.27207 0.187608 1.415C0.129882 1.55793 0.0865882 1.70086 0.0577255 1.84379C0.0144314 1.98672 0 2.14394 0 2.30116V14.6931V27.0851V39.4771V51.8691V64.2611V76.6531V89.045V101.437C0 101.594 0.0144314 101.751 0.0432941 101.909C0.0721569 102.066 0.115451 102.209 0.173176 102.337C0.230902 102.48 0.303059 102.609 0.389647 102.723C0.476235 102.852 0.562824 102.966 0.678275 103.066C0.779294 103.166 0.894745 103.267 1.02463 103.352C1.15451 103.438 1.28439 103.509 1.41427 103.567C1.55859 103.624 1.7029 103.667 1.84722 103.695C2.00596 103.724 2.15027 103.738 2.32345 103.738H4.47373H6.624H8.77427H10.9245H13.0748H15.2251H17.3754H19.5401V103.781Z" fill="url(#paint2_radial_3287:2194)"/>
<path d="M29.125 49.0108C29.125 48.6872 29.3874 48.4248 29.711 48.4248H35.5037H41.8968H48.2754H54.6685H61.0472H67.4403H73.8334H79.626C79.9497 48.4248 80.2121 48.6872 80.2121 49.0108V49.5825V50.1542V50.7403V51.312V51.8837V52.4697C80.2121 52.7854 79.9561 53.0414 79.6403 53.0414H73.8334H67.4403H61.0472H54.6685H48.2754H41.8968H35.5037H29.6967C29.381 53.0414 29.125 52.7854 29.125 52.4697V51.8837V51.312V50.7403V50.1542V49.5825V49.0108Z" fill="url(#paint3_radial_3287:2194)"/>
<path d="M29.125 37.476C29.125 37.1603 29.381 36.9043 29.6967 36.9043H32.7906H36.4561H40.1217H43.7873H47.4528H51.1184H54.784H57.8778C58.1936 36.9043 58.4495 37.1603 58.4495 37.476V38.0477V38.6337V39.2055V39.7772V40.3632V40.9349C58.4495 41.2507 58.1936 41.5066 57.8778 41.5066H54.784H51.1184H47.4528H43.7873H40.1217H36.4561H32.7906H29.6967C29.381 41.5066 29.125 41.2507 29.125 40.9349V40.3632V39.7772V39.2055V38.6337V38.0477V37.476Z" fill="url(#paint4_radial_3287:2194)"/>
<path d="M29.125 60.5307C29.125 60.2149 29.381 59.959 29.6967 59.959H35.5037H41.8968H48.2754H54.6685H61.0472H67.4403H73.8334H79.6403C79.9561 59.959 80.2121 60.2149 80.2121 60.5307V61.1167V61.6884V62.2601V62.8462V63.4179V63.9896C80.2121 64.3132 79.9497 64.5756 79.626 64.5756H73.8334H67.4403H61.0472H54.6685H48.2754H41.8968H35.5037H29.711C29.3874 64.5756 29.125 64.3132 29.125 63.9896V63.4179V62.8462V62.2601V61.6884V61.1167V60.5307Z" fill="url(#paint5_radial_3287:2194)"/>
<path d="M29.125 72.0649C29.125 71.7491 29.381 71.4932 29.6967 71.4932H35.5037H41.8968H48.2754H54.6685H61.0472H67.4403H73.8334H79.6403C79.9561 71.4932 80.2121 71.7491 80.2121 72.0649V72.6366V73.2226V73.7943V74.366V74.9521V75.5238C80.2121 75.8474 79.9497 76.1098 79.626 76.1098H73.8334H67.4403H61.0472H54.6685H48.2754H41.8968H35.5037H29.711C29.3874 76.1098 29.125 75.8474 29.125 75.5238V74.9521V74.366V73.7943V73.2226V72.6366V72.0649Z" fill="url(#paint6_radial_3287:2194)"/>
<path d="M29.125 83.5991C29.125 83.2833 29.381 83.0273 29.6967 83.0273H35.5037H41.8968H48.2754H54.6685H61.0472H67.4403H73.8334H79.6403C79.9561 83.0273 80.2121 83.2833 80.2121 83.5991V84.1708V84.7568V85.3285V85.9002V86.4862V87.058C80.2121 87.3737 79.9561 87.6297 79.6403 87.6297H73.8334H67.4403H61.0472H54.6685H48.2754H41.8968H35.5037H29.6967C29.381 87.6297 29.125 87.3737 29.125 87.058V86.4862V85.9002V85.3285V84.7568V84.1708V83.5991Z" fill="url(#paint7_radial_3287:2194)"/>
<path d="M29.125 95.1339C29.125 94.8102 29.3874 94.5479 29.711 94.5479H35.5037H41.8968H48.2754H54.6685H61.0472H67.4403H73.8334H79.626C79.9497 94.5479 80.2121 94.8102 80.2121 95.1339V95.7056V96.2773V96.8633V97.435V98.0067V98.5928C80.2121 98.9085 79.9561 99.1645 79.6403 99.1645H73.8334H67.4403H61.0472H54.6685H48.2754H41.8968H35.5037H29.6967C29.381 99.1645 29.125 98.9085 29.125 98.5928V98.0067V97.435V96.8633V96.2773V95.7056V95.1339Z" fill="url(#paint8_radial_3287:2194)"/>
<defs>
<radialGradient id="paint0_radial_3287:2194" cx="0" cy="0" r="1" gradientUnits="userSpaceOnUse" gradientTransform="translate(65.0982 112.971) rotate(-83.0274) scale(153.652 605.628)">
<stop stop-color="#00D9F7"/>
<stop offset="1" stop-color="#23FFFF"/>
</radialGradient>
<radialGradient id="paint1_radial_3287:2194" cx="0" cy="0" r="1" gradientUnits="userSpaceOnUse" gradientTransform="translate(83.1296 33.5451) rotate(-80.2621) scale(36.2402 197.619)">
<stop stop-color="#00D9F7"/>
<stop offset="1" stop-color="#23FFFF"/>
</radialGradient>
<radialGradient id="paint2_radial_3287:2194" cx="0" cy="0" r="1" gradientUnits="userSpaceOnUse" gradientTransform="translate(40.2878 103.781) rotate(-84.1104) scale(153.368 512.066)">
<stop stop-color="#00D9F7"/>
<stop offset="1" stop-color="#23FFFF"/>
</radialGradient>
<radialGradient id="paint3_radial_3287:2194" cx="0" cy="0" r="1" gradientUnits="userSpaceOnUse" gradientTransform="translate(61.8207 53.0414) rotate(-27.9844) scale(14.4628 196.033)">
<stop stop-color="#00D9F7"/>
<stop offset="1" stop-color="#23FFFF"/>
</radialGradient>
<radialGradient id="paint4_radial_3287:2194" cx="0" cy="0" r="1" gradientUnits="userSpaceOnUse" gradientTransform="translate(47.8927 41.5066) rotate(-42.7019) scale(9.97579 162.634)">
<stop stop-color="#00D9F7"/>
<stop offset="1" stop-color="#23FFFF"/>
</radialGradient>
<radialGradient id="paint5_radial_3287:2194" cx="0" cy="0" r="1" gradientUnits="userSpaceOnUse" gradientTransform="translate(61.8207 64.5756) rotate(-27.9844) scale(14.4628 196.033)">
<stop stop-color="#00D9F7"/>
<stop offset="1" stop-color="#23FFFF"/>
</radialGradient>
<radialGradient id="paint6_radial_3287:2194" cx="0" cy="0" r="1" gradientUnits="userSpaceOnUse" gradientTransform="translate(61.8207 76.1098) rotate(-27.9845) scale(14.4628 196.034)">
<stop stop-color="#00D9F7"/>
<stop offset="1" stop-color="#23FFFF"/>
</radialGradient>
<radialGradient id="paint7_radial_3287:2194" cx="0" cy="0" r="1" gradientUnits="userSpaceOnUse" gradientTransform="translate(61.8207 87.6297) rotate(-27.911) scale(14.453 195.56)">
<stop stop-color="#00D9F7"/>
<stop offset="1" stop-color="#23FFFF"/>
</radialGradient>
<radialGradient id="paint8_radial_3287:2194" cx="0" cy="0" r="1" gradientUnits="userSpaceOnUse" gradientTransform="translate(61.8207 99.1645) rotate(-27.9844) scale(14.4628 196.033)">
<stop stop-color="#00D9F7"/>
<stop offset="1" stop-color="#23FFFF"/>
</radialGradient>
</defs>
</svg>
