<svg width="137" height="137" viewBox="0 0 137 137" fill="none" xmlns="http://www.w3.org/2000/svg">
<path d="M62.8806 37.0003H58.7766L51.9126 26.6083V37.0003H47.8086V20.1523H51.9126L58.7766 30.5923V20.1523H62.8806V37.0003Z" fill="url(#paint0_radial_3287:2251)"/>
<path d="M76.8235 20.1523V23.4403H69.9595V26.9923H75.0955V30.1843H69.9595V37.0003H65.8555V20.1523H76.8235Z" fill="url(#paint1_radial_3287:2251)"/>
<path d="M91.1005 20.1523V23.4403H86.6365V37.0003H82.5325V23.4403H78.0685V20.1523H91.1005Z" fill="url(#paint2_radial_3287:2251)"/>
<path fill-rule="evenodd" clip-rule="evenodd" d="M53.7772 49.1771C53.7772 45.0981 57.094 41.8027 61.1714 41.8027C65.2482 41.8027 68.5666 45.0965 68.5666 49.1771V68.2888C69.5837 67.7638 70.738 67.4674 71.9608 67.4674C75.4928 67.4674 78.4557 69.9407 79.1838 73.2557C80.2417 72.6739 81.4573 72.343 82.7493 72.343C86.4193 72.343 89.4749 75.0134 90.0473 78.5238C91.0877 77.967 92.2767 77.6513 93.5387 77.6513C97.6164 77.6513 100.933 80.947 100.933 85.0267V106.91C100.933 108.005 100.532 109.5 100.092 110.882C99.6239 112.351 99.0077 113.997 98.4026 115.521C97.7956 117.05 97.19 118.481 96.7368 119.528C96.5385 119.987 96.3688 120.373 96.2405 120.663L98.8895 133.856C99.0075 134.444 98.8556 135.054 98.4758 135.517C98.0959 135.981 97.5281 136.25 96.9286 136.25H57.1628C56.0582 136.25 55.1628 135.354 55.1628 134.25V121.142C54.889 120.805 54.5035 120.33 54.0402 119.754C53.0901 118.574 51.8106 116.969 50.4957 115.275C49.1832 113.585 47.8244 111.791 46.7204 110.237C45.6771 108.768 44.6934 107.285 44.3171 106.317C43.8389 105.087 42.7182 103.238 41.1658 101.031C39.6432 98.8674 37.8045 96.497 36.0003 94.262C34.1988 92.0303 32.4461 89.9512 31.1004 88.3712C30.6625 87.8571 30.2713 87.4 29.9336 87.0055C29.7504 86.7914 29.5829 86.5957 29.4322 86.4192C29.0501 85.9718 28.7033 85.565 28.5618 85.3711M28.5618 85.3711L28.5595 85.3679C28.546 85.3494 28.5214 85.3157 28.4951 85.2782C28.4331 85.1903 28.3784 85.1075 28.3332 85.0377L28.3284 85.0303C27.3213 83.46 26.952 81.4815 27.4751 79.5345C28.4635 75.8561 32.2525 73.6842 35.929 74.6662C37.3916 75.0575 38.6126 76.1068 39.1348 76.5725L39.1355 76.5732C41.516 78.6985 46.0454 82.9176 49.9618 86.5882C51.3475 87.887 52.6596 89.12 53.7772 90.1716V49.1771M55.8464 94.8707C54.4726 96.3243 54.4726 96.3242 54.4725 96.3242L53.8919 95.7759C53.5186 95.4236 52.9801 94.9156 52.3191 94.2929C50.997 93.0472 49.1853 91.3427 47.2264 89.5067C43.3009 85.8276 38.8088 81.6438 36.4715 79.557C36.2418 79.3521 35.9617 79.1178 35.6586 78.9147C35.3439 78.7039 35.083 78.5805 34.896 78.5305C33.3399 78.1153 31.7506 79.0374 31.3381 80.5723M55.8464 94.8707L54.4725 96.3242C55.0958 96.9132 56.0254 97.0395 56.7831 96.6378C57.5408 96.2361 57.9581 95.3961 57.8204 94.5496C57.7921 94.3755 57.7772 94.1976 57.7772 94.0168V49.1771C57.7772 47.3207 59.2897 45.8027 61.1714 45.8027C63.0539 45.8027 64.5666 47.3204 64.5666 49.1771V74.8418C64.5666 75.9464 65.4621 76.8418 66.5666 76.8418C67.6712 76.8418 68.5666 75.9464 68.5666 74.8418C68.5666 72.9854 70.0791 71.4674 71.9608 71.4674C73.8421 71.4674 75.3551 72.9849 75.3551 74.8418V79.7174C75.3551 80.822 76.2505 81.7174 77.3551 81.7174C78.4596 81.7174 79.3551 80.822 79.3551 79.7174C79.3551 77.861 80.8675 76.343 82.7493 76.343C84.6306 76.343 86.1435 77.8605 86.1435 79.7174V85.026C86.1435 86.1305 87.0388 87.0265 88.1432 87.0267C89.2476 87.0268 90.1432 86.1318 90.1435 85.0273C90.1435 85.0275 90.1435 85.0271 90.1435 85.0273C90.1445 83.1694 91.6575 81.6513 93.5387 81.6513C95.4202 81.6513 96.9329 83.1691 96.9329 85.0267V106.91C96.9329 107.3 96.7365 108.236 96.2806 109.668C95.8528 111.011 95.2745 112.56 94.6849 114.045C94.0974 115.525 93.5084 116.917 93.0656 117.94C92.9902 118.114 92.9191 118.278 92.8531 118.429H58.1126C57.8589 118.117 57.5338 117.715 57.1563 117.246C56.2154 116.077 54.9513 114.492 53.6553 112.822C52.357 111.15 51.0377 109.407 49.9817 107.92C48.865 106.348 48.2071 105.284 48.0452 104.868C47.3756 103.145 46.0013 100.953 44.4371 98.7295C42.843 96.4638 40.9433 94.0171 39.1128 91.7495C37.2797 89.4786 35.5015 87.3695 34.1456 85.7776C33.7056 85.2611 33.3065 84.7947 32.9664 84.3973C32.7844 84.1847 32.6193 83.9919 32.474 83.8217C32.263 83.5745 32.0941 83.3759 31.9694 83.2271C31.8715 83.1102 31.822 83.0491 31.8034 83.0261C31.7948 83.0154 31.7928 83.0129 31.7958 83.017L31.7926 83.0127L31.7758 82.9896C31.7722 82.9846 31.7709 82.9827 31.7709 82.9828L31.7638 82.9726C31.7451 82.9462 31.7229 82.9132 31.6934 82.8677C31.2704 82.2061 31.1198 81.3848 31.3381 80.5723M59.1628 122.429H92.5153L94.4871 132.25H59.1628V122.429Z" fill="url(#paint3_radial_3287:2251)"/>
<path fill-rule="evenodd" clip-rule="evenodd" d="M0.0390625 22C0.0390625 9.84976 9.8888 0 22.0391 0H114.958C127.108 0 136.958 9.84973 136.958 22V32.8482C136.958 44.9984 127.108 54.8482 114.958 54.8482H75.3459C74.2413 54.8482 73.3459 53.9528 73.3459 52.8482C73.3459 51.7436 74.2413 50.8482 75.3459 50.8482H114.958C124.899 50.8482 132.958 42.7893 132.958 32.8482V22C132.958 12.0589 124.899 4 114.958 4H22.0391C12.0979 4 4.03906 12.0589 4.03906 22V32.8482C4.03906 42.7893 12.0979 50.8482 22.0391 50.8482H46.3454C47.45 50.8482 48.3454 51.7436 48.3454 52.8482C48.3454 53.9528 47.45 54.8482 46.3454 54.8482H22.0391C9.88881 54.8482 0.0390625 44.9985 0.0390625 32.8482V22Z" fill="url(#paint4_radial_3287:2251)"/>
<defs>
<radialGradient id="paint0_radial_3287:2251" cx="0" cy="0" r="1" gradientUnits="userSpaceOnUse" gradientTransform="translate(75.5154 37.0003) rotate(-66.3947) scale(27.0281 324.405)">
<stop stop-color="#00D9F7"/>
<stop offset="1" stop-color="#23FFFF"/>
</radialGradient>
<radialGradient id="paint1_radial_3287:2251" cx="0" cy="0" r="1" gradientUnits="userSpaceOnUse" gradientTransform="translate(75.5154 37.0003) rotate(-66.3947) scale(27.0281 324.405)">
<stop stop-color="#00D9F7"/>
<stop offset="1" stop-color="#23FFFF"/>
</radialGradient>
<radialGradient id="paint2_radial_3287:2251" cx="0" cy="0" r="1" gradientUnits="userSpaceOnUse" gradientTransform="translate(75.5154 37.0003) rotate(-66.3947) scale(27.0281 324.405)">
<stop stop-color="#00D9F7"/>
<stop offset="1" stop-color="#23FFFF"/>
</radialGradient>
<radialGradient id="paint3_radial_3287:2251" cx="0" cy="0" r="1" gradientUnits="userSpaceOnUse" gradientTransform="translate(74.4029 136.25) rotate(-82.441) scale(140.054 597.416)">
<stop stop-color="#00D9F7"/>
<stop offset="1" stop-color="#23FFFF"/>
</radialGradient>
<radialGradient id="paint4_radial_3287:2251" cx="0" cy="0" r="1" gradientUnits="userSpaceOnUse" gradientTransform="translate(87.6672 54.8482) rotate(-66.9966) scale(87.592 1030.65)">
<stop stop-color="#00D9F7"/>
<stop offset="1" stop-color="#23FFFF"/>
</radialGradient>
</defs>
</svg>
